G04 #@! TF.GenerationSoftware,KiCad,Pcbnew,(5.1.4)-1*
G04 #@! TF.CreationDate,2019-10-05T20:16:33-07:00*
G04 #@! TF.ProjectId,teh,7465682e-6b69-4636-9164-5f7063625858,rev?*
G04 #@! TF.SameCoordinates,Original*
G04 #@! TF.FileFunction,Copper,L2,Bot*
G04 #@! TF.FilePolarity,Positive*
%FSLAX46Y46*%
G04 Gerber Fmt 4.6, Leading zero omitted, Abs format (unit mm)*
G04 Created by KiCad (PCBNEW (5.1.4)-1) date 2019-10-05 20:16:33*
%MOMM*%
%LPD*%
G04 APERTURE LIST*
%ADD10C,0.050000*%
%ADD11C,4.200000*%
%ADD12R,1.700000X1.700000*%
%ADD13O,1.700000X1.700000*%
%ADD14C,0.800000*%
%ADD15C,0.250000*%
%ADD16C,0.200000*%
G04 APERTURE END LIST*
D10*
X91440000Y-38100000D02*
X258445000Y-38100000D01*
X91440000Y-64135000D02*
X91440000Y-38100000D01*
X258445000Y-64135000D02*
X91440000Y-64135000D01*
X258445000Y-38100000D02*
X258445000Y-64135000D01*
D11*
X254787400Y-43027600D03*
X240957100Y-43027600D03*
X240957100Y-56857900D03*
X254787400Y-56857900D03*
D12*
X250596400Y-53797200D03*
D13*
X250596400Y-51257200D03*
X250596400Y-48717200D03*
X250596400Y-46177200D03*
D14*
X128206000Y-62290000D03*
X154472000Y-62290000D03*
X180738000Y-62290000D03*
X229218700Y-62170500D03*
X101940000Y-62290000D03*
X207004000Y-62290000D03*
X95885000Y-45720000D03*
X120650000Y-45720000D03*
X141605000Y-45720000D03*
X106680000Y-46355000D03*
X152400000Y-46355000D03*
X163195000Y-46990000D03*
X181610000Y-45085000D03*
X193040000Y-44450000D03*
X195580000Y-45720000D03*
X212090000Y-46990000D03*
X224790000Y-45720000D03*
X233680000Y-45720000D03*
X239395000Y-46990000D03*
X202565000Y-47625000D03*
X177800000Y-48895000D03*
X168910000Y-48260000D03*
X157480000Y-48895000D03*
X138430000Y-48260000D03*
X127635000Y-46990000D03*
X132715000Y-48895000D03*
X116205000Y-48895000D03*
X102870000Y-48260000D03*
X92710000Y-48260000D03*
X109651800Y-56286400D03*
X108775500Y-55283100D03*
X136029700Y-55041800D03*
X103581200Y-55029100D03*
X134124700Y-54927500D03*
X102552500Y-54571900D03*
X128104900Y-54508400D03*
X159972001Y-52775778D03*
X161442400Y-53808800D03*
X129667000Y-54927500D03*
X156083000Y-54711600D03*
X187286900Y-54013100D03*
X188569600Y-56324500D03*
X156629100Y-55626000D03*
X213138986Y-53017877D03*
X181521100Y-53670200D03*
X212864700Y-54813200D03*
X182499000Y-55295800D03*
X208457800Y-56464200D03*
X232156000Y-55791100D03*
X207073500Y-54521100D03*
X232829100Y-54356000D03*
D15*
X109651800Y-56286400D02*
X113902070Y-56286400D01*
X115142435Y-57526765D02*
X118135981Y-60520311D01*
X115142435Y-57526765D02*
X115254881Y-57639211D01*
X113902070Y-56286400D02*
X115142435Y-57526765D01*
X243281289Y-60520311D02*
X242654089Y-60520311D01*
X244973289Y-60520311D02*
X242206511Y-60520311D01*
X250596400Y-54897200D02*
X244973289Y-60520311D01*
X250596400Y-53797200D02*
X250596400Y-54897200D01*
X118135981Y-60520311D02*
X242206511Y-60520311D01*
X242206511Y-60520311D02*
X242654089Y-60520311D01*
X113535180Y-55283100D02*
X115441281Y-57189201D01*
X108775500Y-55283100D02*
X113535180Y-55283100D01*
X115441281Y-57189201D02*
X211561701Y-57189201D01*
X211561701Y-57189201D02*
X214442801Y-60070301D01*
X241783299Y-60070301D02*
X240892901Y-60070301D01*
X250596400Y-51257200D02*
X241783299Y-60070301D01*
X214442801Y-60070301D02*
X240892901Y-60070301D01*
X136029700Y-55041800D02*
X135464015Y-55041800D01*
X104350390Y-54259910D02*
X113148400Y-54259910D01*
X103581200Y-55029100D02*
X104350390Y-54259910D01*
X134403304Y-56102511D02*
X135464015Y-55041800D01*
X114991001Y-56102511D02*
X134403304Y-56102511D01*
X113148400Y-54259910D02*
X114991001Y-56102511D01*
X134124700Y-54927500D02*
X133553200Y-54356000D01*
X133553200Y-54356000D02*
X131311502Y-54356000D01*
X131311502Y-54356000D02*
X130015001Y-55652501D01*
X130015001Y-55652501D02*
X115177401Y-55652501D01*
X115177401Y-55652501D02*
X113334800Y-53809900D01*
X113334800Y-53809900D02*
X103314500Y-53809900D01*
X103314500Y-53809900D02*
X102552500Y-54571900D01*
X159406316Y-52775778D02*
X159399038Y-52768500D01*
X159972001Y-52775778D02*
X159406316Y-52775778D01*
X159399038Y-52768500D02*
X129844800Y-52768500D01*
X129844800Y-52768500D02*
X128104900Y-54508400D01*
X161442400Y-53808800D02*
X130785700Y-53808800D01*
X130785700Y-53808800D02*
X129667000Y-54927500D01*
X156260800Y-54533800D02*
X156083000Y-54711600D01*
X181730502Y-54533800D02*
X156260800Y-54533800D01*
X182251202Y-54013100D02*
X181730502Y-54533800D01*
X187286900Y-54013100D02*
X182251202Y-54013100D01*
X188074300Y-55829200D02*
X183591200Y-55829200D01*
X188569600Y-56324500D02*
X188074300Y-55829200D01*
X183591200Y-55829200D02*
X183399599Y-56020801D01*
X156818499Y-55436601D02*
X156629100Y-55626000D01*
X183399599Y-56020801D02*
X174888919Y-56020801D01*
X174888919Y-56020801D02*
X174304719Y-55436601D01*
X174304719Y-55436601D02*
X156818499Y-55436601D01*
X213138986Y-53017877D02*
X182071823Y-53017877D01*
X182071823Y-53017877D02*
X181521100Y-53568600D01*
X181521100Y-53568600D02*
X181521100Y-53670200D01*
X207371802Y-55295800D02*
X182499000Y-55295800D01*
X212864700Y-54813200D02*
X207854402Y-54813200D01*
X207854402Y-54813200D02*
X207371802Y-55295800D01*
X209130900Y-55791100D02*
X208457800Y-56464200D01*
X232156000Y-55791100D02*
X209130900Y-55791100D01*
X207632300Y-53962300D02*
X207073500Y-54521100D01*
X213086802Y-53962300D02*
X207632300Y-53962300D01*
X213480502Y-54356000D02*
X213086802Y-53962300D01*
X232829100Y-54356000D02*
X213480502Y-54356000D01*
D16*
G36*
X258020001Y-63710000D02*
G01*
X91865000Y-63710000D01*
X91865000Y-54493107D01*
X101752500Y-54493107D01*
X101752500Y-54650693D01*
X101783243Y-54805251D01*
X101843549Y-54950842D01*
X101931099Y-55081870D01*
X102042530Y-55193301D01*
X102173558Y-55280851D01*
X102319149Y-55341157D01*
X102473707Y-55371900D01*
X102631293Y-55371900D01*
X102785851Y-55341157D01*
X102835949Y-55320406D01*
X102872249Y-55408042D01*
X102959799Y-55539070D01*
X103071230Y-55650501D01*
X103202258Y-55738051D01*
X103347849Y-55798357D01*
X103502407Y-55829100D01*
X103659993Y-55829100D01*
X103814551Y-55798357D01*
X103960142Y-55738051D01*
X104091170Y-55650501D01*
X104202601Y-55539070D01*
X104290151Y-55408042D01*
X104350457Y-55262451D01*
X104381200Y-55107893D01*
X104381200Y-54971562D01*
X104567852Y-54784910D01*
X108146228Y-54784910D01*
X108066549Y-54904158D01*
X108006243Y-55049749D01*
X107975500Y-55204307D01*
X107975500Y-55361893D01*
X108006243Y-55516451D01*
X108066549Y-55662042D01*
X108154099Y-55793070D01*
X108265530Y-55904501D01*
X108396558Y-55992051D01*
X108542149Y-56052357D01*
X108696707Y-56083100D01*
X108854293Y-56083100D01*
X108877483Y-56078487D01*
X108851800Y-56207607D01*
X108851800Y-56365193D01*
X108882543Y-56519751D01*
X108942849Y-56665342D01*
X109030399Y-56796370D01*
X109141830Y-56907801D01*
X109272858Y-56995351D01*
X109418449Y-57055657D01*
X109573007Y-57086400D01*
X109730593Y-57086400D01*
X109885151Y-57055657D01*
X110030742Y-56995351D01*
X110161770Y-56907801D01*
X110258171Y-56811400D01*
X113684609Y-56811400D01*
X114789438Y-57916230D01*
X114789444Y-57916235D01*
X117746515Y-60873307D01*
X117762954Y-60893338D01*
X117842895Y-60958944D01*
X117934100Y-61007694D01*
X118033063Y-61037714D01*
X118110193Y-61045311D01*
X118110200Y-61045311D01*
X118135980Y-61047850D01*
X118161760Y-61045311D01*
X244947509Y-61045311D01*
X244973289Y-61047850D01*
X244999069Y-61045311D01*
X244999077Y-61045311D01*
X245076207Y-61037714D01*
X245175170Y-61007694D01*
X245266375Y-60958944D01*
X245346316Y-60893338D01*
X245362760Y-60873301D01*
X249668712Y-56567350D01*
X251837400Y-56567350D01*
X251837400Y-57148450D01*
X251950767Y-57718383D01*
X252173144Y-58255249D01*
X252495985Y-58738416D01*
X252906884Y-59149315D01*
X253390051Y-59472156D01*
X253926917Y-59694533D01*
X254496850Y-59807900D01*
X255077950Y-59807900D01*
X255647883Y-59694533D01*
X256184749Y-59472156D01*
X256667916Y-59149315D01*
X257078815Y-58738416D01*
X257401656Y-58255249D01*
X257624033Y-57718383D01*
X257737400Y-57148450D01*
X257737400Y-56567350D01*
X257624033Y-55997417D01*
X257401656Y-55460551D01*
X257078815Y-54977384D01*
X256667916Y-54566485D01*
X256184749Y-54243644D01*
X255647883Y-54021267D01*
X255077950Y-53907900D01*
X254496850Y-53907900D01*
X253926917Y-54021267D01*
X253390051Y-54243644D01*
X252906884Y-54566485D01*
X252495985Y-54977384D01*
X252173144Y-55460551D01*
X251950767Y-55997417D01*
X251837400Y-56567350D01*
X249668712Y-56567350D01*
X250949401Y-55286662D01*
X250969427Y-55270227D01*
X250985862Y-55250201D01*
X250985866Y-55250197D01*
X251035033Y-55190286D01*
X251083783Y-55099081D01*
X251098934Y-55049135D01*
X251446400Y-55049135D01*
X251524814Y-55041412D01*
X251600214Y-55018540D01*
X251669703Y-54981397D01*
X251730611Y-54931411D01*
X251780597Y-54870503D01*
X251817740Y-54801014D01*
X251840612Y-54725614D01*
X251848335Y-54647200D01*
X251848335Y-52947200D01*
X251840612Y-52868786D01*
X251817740Y-52793386D01*
X251780597Y-52723897D01*
X251730611Y-52662989D01*
X251669703Y-52613003D01*
X251600214Y-52575860D01*
X251524814Y-52552988D01*
X251446400Y-52545265D01*
X250050797Y-52545265D01*
X250163833Y-52432229D01*
X250351357Y-52489113D01*
X250534995Y-52507200D01*
X250657805Y-52507200D01*
X250841443Y-52489113D01*
X251077069Y-52417637D01*
X251294223Y-52301566D01*
X251484560Y-52145360D01*
X251640766Y-51955023D01*
X251756837Y-51737869D01*
X251828313Y-51502243D01*
X251852448Y-51257200D01*
X251828313Y-51012157D01*
X251756837Y-50776531D01*
X251640766Y-50559377D01*
X251484560Y-50369040D01*
X251294223Y-50212834D01*
X251077069Y-50096763D01*
X250841443Y-50025287D01*
X250657805Y-50007200D01*
X250534995Y-50007200D01*
X250351357Y-50025287D01*
X250115731Y-50096763D01*
X249898577Y-50212834D01*
X249708240Y-50369040D01*
X249552034Y-50559377D01*
X249435963Y-50776531D01*
X249364487Y-51012157D01*
X249340352Y-51257200D01*
X249364487Y-51502243D01*
X249421371Y-51689767D01*
X243893297Y-57217842D01*
X243907100Y-57148450D01*
X243907100Y-56567350D01*
X243793733Y-55997417D01*
X243571356Y-55460551D01*
X243248515Y-54977384D01*
X242837616Y-54566485D01*
X242354449Y-54243644D01*
X241817583Y-54021267D01*
X241247650Y-53907900D01*
X240666550Y-53907900D01*
X240096617Y-54021267D01*
X239559751Y-54243644D01*
X239076584Y-54566485D01*
X238665685Y-54977384D01*
X238342844Y-55460551D01*
X238120467Y-55997417D01*
X238007100Y-56567350D01*
X238007100Y-57148450D01*
X238120467Y-57718383D01*
X238342844Y-58255249D01*
X238665685Y-58738416D01*
X239076584Y-59149315D01*
X239559751Y-59472156D01*
X239736339Y-59545301D01*
X214660263Y-59545301D01*
X211951172Y-56836211D01*
X211934728Y-56816174D01*
X211854787Y-56750568D01*
X211763582Y-56701818D01*
X211664619Y-56671798D01*
X211587489Y-56664201D01*
X211587481Y-56664201D01*
X211561701Y-56661662D01*
X211535921Y-56664201D01*
X209233691Y-56664201D01*
X209257800Y-56542993D01*
X209257800Y-56406662D01*
X209348362Y-56316100D01*
X231549629Y-56316100D01*
X231646030Y-56412501D01*
X231777058Y-56500051D01*
X231922649Y-56560357D01*
X232077207Y-56591100D01*
X232234793Y-56591100D01*
X232389351Y-56560357D01*
X232534942Y-56500051D01*
X232665970Y-56412501D01*
X232777401Y-56301070D01*
X232864951Y-56170042D01*
X232925257Y-56024451D01*
X232956000Y-55869893D01*
X232956000Y-55712307D01*
X232925257Y-55557749D01*
X232864951Y-55412158D01*
X232777401Y-55281130D01*
X232665970Y-55169699D01*
X232601030Y-55126307D01*
X232750307Y-55156000D01*
X232907893Y-55156000D01*
X233062451Y-55125257D01*
X233208042Y-55064951D01*
X233339070Y-54977401D01*
X233450501Y-54865970D01*
X233538051Y-54734942D01*
X233598357Y-54589351D01*
X233629100Y-54434793D01*
X233629100Y-54277207D01*
X233598357Y-54122649D01*
X233538051Y-53977058D01*
X233450501Y-53846030D01*
X233339070Y-53734599D01*
X233208042Y-53647049D01*
X233062451Y-53586743D01*
X232907893Y-53556000D01*
X232750307Y-53556000D01*
X232595749Y-53586743D01*
X232450158Y-53647049D01*
X232319130Y-53734599D01*
X232222729Y-53831000D01*
X213697964Y-53831000D01*
X213563405Y-53696441D01*
X213648956Y-53639278D01*
X213760387Y-53527847D01*
X213847937Y-53396819D01*
X213908243Y-53251228D01*
X213938986Y-53096670D01*
X213938986Y-52939084D01*
X213908243Y-52784526D01*
X213847937Y-52638935D01*
X213760387Y-52507907D01*
X213648956Y-52396476D01*
X213517928Y-52308926D01*
X213372337Y-52248620D01*
X213217779Y-52217877D01*
X213060193Y-52217877D01*
X212905635Y-52248620D01*
X212760044Y-52308926D01*
X212629016Y-52396476D01*
X212532615Y-52492877D01*
X182097603Y-52492877D01*
X182071823Y-52490338D01*
X182046043Y-52492877D01*
X182046035Y-52492877D01*
X181968905Y-52500474D01*
X181869942Y-52530494D01*
X181778737Y-52579244D01*
X181698796Y-52644850D01*
X181682356Y-52664882D01*
X181477038Y-52870200D01*
X181442307Y-52870200D01*
X181287749Y-52900943D01*
X181142158Y-52961249D01*
X181011130Y-53048799D01*
X180899699Y-53160230D01*
X180812149Y-53291258D01*
X180751843Y-53436849D01*
X180721100Y-53591407D01*
X180721100Y-53748993D01*
X180751843Y-53903551D01*
X180795439Y-54008800D01*
X162218291Y-54008800D01*
X162242400Y-53887593D01*
X162242400Y-53730007D01*
X162211657Y-53575449D01*
X162151351Y-53429858D01*
X162063801Y-53298830D01*
X161952370Y-53187399D01*
X161821342Y-53099849D01*
X161675751Y-53039543D01*
X161521193Y-53008800D01*
X161363607Y-53008800D01*
X161209049Y-53039543D01*
X161063458Y-53099849D01*
X160932430Y-53187399D01*
X160836029Y-53283800D01*
X160594704Y-53283800D01*
X160680952Y-53154720D01*
X160741258Y-53009129D01*
X160772001Y-52854571D01*
X160772001Y-52696985D01*
X160741258Y-52542427D01*
X160680952Y-52396836D01*
X160593402Y-52265808D01*
X160481971Y-52154377D01*
X160350943Y-52066827D01*
X160205352Y-52006521D01*
X160050794Y-51975778D01*
X159893208Y-51975778D01*
X159738650Y-52006521D01*
X159593059Y-52066827D01*
X159462031Y-52154377D01*
X159372908Y-52243500D01*
X129870579Y-52243500D01*
X129844799Y-52240961D01*
X129819019Y-52243500D01*
X129819012Y-52243500D01*
X129741882Y-52251097D01*
X129642919Y-52281117D01*
X129551714Y-52329867D01*
X129471773Y-52395473D01*
X129455334Y-52415504D01*
X128162439Y-53708400D01*
X128026107Y-53708400D01*
X127871549Y-53739143D01*
X127725958Y-53799449D01*
X127594930Y-53886999D01*
X127483499Y-53998430D01*
X127395949Y-54129458D01*
X127335643Y-54275049D01*
X127304900Y-54429607D01*
X127304900Y-54587193D01*
X127335643Y-54741751D01*
X127395949Y-54887342D01*
X127483499Y-55018370D01*
X127592630Y-55127501D01*
X115394863Y-55127501D01*
X113724271Y-53456910D01*
X113707827Y-53436873D01*
X113627886Y-53371267D01*
X113536681Y-53322517D01*
X113437718Y-53292497D01*
X113360588Y-53284900D01*
X113360580Y-53284900D01*
X113334800Y-53282361D01*
X113309020Y-53284900D01*
X103340288Y-53284900D01*
X103314500Y-53282360D01*
X103288712Y-53284900D01*
X103211582Y-53292497D01*
X103112619Y-53322517D01*
X103021414Y-53371267D01*
X102996518Y-53391699D01*
X102961503Y-53420434D01*
X102961499Y-53420438D01*
X102941473Y-53436873D01*
X102925038Y-53456899D01*
X102610038Y-53771900D01*
X102473707Y-53771900D01*
X102319149Y-53802643D01*
X102173558Y-53862949D01*
X102042530Y-53950499D01*
X101931099Y-54061930D01*
X101843549Y-54192958D01*
X101783243Y-54338549D01*
X101752500Y-54493107D01*
X91865000Y-54493107D01*
X91865000Y-46177200D01*
X249340352Y-46177200D01*
X249364487Y-46422243D01*
X249435963Y-46657869D01*
X249552034Y-46875023D01*
X249708240Y-47065360D01*
X249898577Y-47221566D01*
X250115731Y-47337637D01*
X250351357Y-47409113D01*
X250534995Y-47427200D01*
X250657805Y-47427200D01*
X250841443Y-47409113D01*
X251077069Y-47337637D01*
X251294223Y-47221566D01*
X251484560Y-47065360D01*
X251640766Y-46875023D01*
X251756837Y-46657869D01*
X251828313Y-46422243D01*
X251852448Y-46177200D01*
X251828313Y-45932157D01*
X251756837Y-45696531D01*
X251640766Y-45479377D01*
X251484560Y-45289040D01*
X251294223Y-45132834D01*
X251077069Y-45016763D01*
X250841443Y-44945287D01*
X250657805Y-44927200D01*
X250534995Y-44927200D01*
X250351357Y-44945287D01*
X250115731Y-45016763D01*
X249898577Y-45132834D01*
X249708240Y-45289040D01*
X249552034Y-45479377D01*
X249435963Y-45696531D01*
X249364487Y-45932157D01*
X249340352Y-46177200D01*
X91865000Y-46177200D01*
X91865000Y-42737050D01*
X238007100Y-42737050D01*
X238007100Y-43318150D01*
X238120467Y-43888083D01*
X238342844Y-44424949D01*
X238665685Y-44908116D01*
X239076584Y-45319015D01*
X239559751Y-45641856D01*
X240096617Y-45864233D01*
X240666550Y-45977600D01*
X241247650Y-45977600D01*
X241817583Y-45864233D01*
X242354449Y-45641856D01*
X242837616Y-45319015D01*
X243248515Y-44908116D01*
X243571356Y-44424949D01*
X243793733Y-43888083D01*
X243907100Y-43318150D01*
X243907100Y-42737050D01*
X251837400Y-42737050D01*
X251837400Y-43318150D01*
X251950767Y-43888083D01*
X252173144Y-44424949D01*
X252495985Y-44908116D01*
X252906884Y-45319015D01*
X253390051Y-45641856D01*
X253926917Y-45864233D01*
X254496850Y-45977600D01*
X255077950Y-45977600D01*
X255647883Y-45864233D01*
X256184749Y-45641856D01*
X256667916Y-45319015D01*
X257078815Y-44908116D01*
X257401656Y-44424949D01*
X257624033Y-43888083D01*
X257737400Y-43318150D01*
X257737400Y-42737050D01*
X257624033Y-42167117D01*
X257401656Y-41630251D01*
X257078815Y-41147084D01*
X256667916Y-40736185D01*
X256184749Y-40413344D01*
X255647883Y-40190967D01*
X255077950Y-40077600D01*
X254496850Y-40077600D01*
X253926917Y-40190967D01*
X253390051Y-40413344D01*
X252906884Y-40736185D01*
X252495985Y-41147084D01*
X252173144Y-41630251D01*
X251950767Y-42167117D01*
X251837400Y-42737050D01*
X243907100Y-42737050D01*
X243793733Y-42167117D01*
X243571356Y-41630251D01*
X243248515Y-41147084D01*
X242837616Y-40736185D01*
X242354449Y-40413344D01*
X241817583Y-40190967D01*
X241247650Y-40077600D01*
X240666550Y-40077600D01*
X240096617Y-40190967D01*
X239559751Y-40413344D01*
X239076584Y-40736185D01*
X238665685Y-41147084D01*
X238342844Y-41630251D01*
X238120467Y-42167117D01*
X238007100Y-42737050D01*
X91865000Y-42737050D01*
X91865000Y-38525000D01*
X258020000Y-38525000D01*
X258020001Y-63710000D01*
X258020001Y-63710000D01*
G37*
X258020001Y-63710000D02*
X91865000Y-63710000D01*
X91865000Y-54493107D01*
X101752500Y-54493107D01*
X101752500Y-54650693D01*
X101783243Y-54805251D01*
X101843549Y-54950842D01*
X101931099Y-55081870D01*
X102042530Y-55193301D01*
X102173558Y-55280851D01*
X102319149Y-55341157D01*
X102473707Y-55371900D01*
X102631293Y-55371900D01*
X102785851Y-55341157D01*
X102835949Y-55320406D01*
X102872249Y-55408042D01*
X102959799Y-55539070D01*
X103071230Y-55650501D01*
X103202258Y-55738051D01*
X103347849Y-55798357D01*
X103502407Y-55829100D01*
X103659993Y-55829100D01*
X103814551Y-55798357D01*
X103960142Y-55738051D01*
X104091170Y-55650501D01*
X104202601Y-55539070D01*
X104290151Y-55408042D01*
X104350457Y-55262451D01*
X104381200Y-55107893D01*
X104381200Y-54971562D01*
X104567852Y-54784910D01*
X108146228Y-54784910D01*
X108066549Y-54904158D01*
X108006243Y-55049749D01*
X107975500Y-55204307D01*
X107975500Y-55361893D01*
X108006243Y-55516451D01*
X108066549Y-55662042D01*
X108154099Y-55793070D01*
X108265530Y-55904501D01*
X108396558Y-55992051D01*
X108542149Y-56052357D01*
X108696707Y-56083100D01*
X108854293Y-56083100D01*
X108877483Y-56078487D01*
X108851800Y-56207607D01*
X108851800Y-56365193D01*
X108882543Y-56519751D01*
X108942849Y-56665342D01*
X109030399Y-56796370D01*
X109141830Y-56907801D01*
X109272858Y-56995351D01*
X109418449Y-57055657D01*
X109573007Y-57086400D01*
X109730593Y-57086400D01*
X109885151Y-57055657D01*
X110030742Y-56995351D01*
X110161770Y-56907801D01*
X110258171Y-56811400D01*
X113684609Y-56811400D01*
X114789438Y-57916230D01*
X114789444Y-57916235D01*
X117746515Y-60873307D01*
X117762954Y-60893338D01*
X117842895Y-60958944D01*
X117934100Y-61007694D01*
X118033063Y-61037714D01*
X118110193Y-61045311D01*
X118110200Y-61045311D01*
X118135980Y-61047850D01*
X118161760Y-61045311D01*
X244947509Y-61045311D01*
X244973289Y-61047850D01*
X244999069Y-61045311D01*
X244999077Y-61045311D01*
X245076207Y-61037714D01*
X245175170Y-61007694D01*
X245266375Y-60958944D01*
X245346316Y-60893338D01*
X245362760Y-60873301D01*
X249668712Y-56567350D01*
X251837400Y-56567350D01*
X251837400Y-57148450D01*
X251950767Y-57718383D01*
X252173144Y-58255249D01*
X252495985Y-58738416D01*
X252906884Y-59149315D01*
X253390051Y-59472156D01*
X253926917Y-59694533D01*
X254496850Y-59807900D01*
X255077950Y-59807900D01*
X255647883Y-59694533D01*
X256184749Y-59472156D01*
X256667916Y-59149315D01*
X257078815Y-58738416D01*
X257401656Y-58255249D01*
X257624033Y-57718383D01*
X257737400Y-57148450D01*
X257737400Y-56567350D01*
X257624033Y-55997417D01*
X257401656Y-55460551D01*
X257078815Y-54977384D01*
X256667916Y-54566485D01*
X256184749Y-54243644D01*
X255647883Y-54021267D01*
X255077950Y-53907900D01*
X254496850Y-53907900D01*
X253926917Y-54021267D01*
X253390051Y-54243644D01*
X252906884Y-54566485D01*
X252495985Y-54977384D01*
X252173144Y-55460551D01*
X251950767Y-55997417D01*
X251837400Y-56567350D01*
X249668712Y-56567350D01*
X250949401Y-55286662D01*
X250969427Y-55270227D01*
X250985862Y-55250201D01*
X250985866Y-55250197D01*
X251035033Y-55190286D01*
X251083783Y-55099081D01*
X251098934Y-55049135D01*
X251446400Y-55049135D01*
X251524814Y-55041412D01*
X251600214Y-55018540D01*
X251669703Y-54981397D01*
X251730611Y-54931411D01*
X251780597Y-54870503D01*
X251817740Y-54801014D01*
X251840612Y-54725614D01*
X251848335Y-54647200D01*
X251848335Y-52947200D01*
X251840612Y-52868786D01*
X251817740Y-52793386D01*
X251780597Y-52723897D01*
X251730611Y-52662989D01*
X251669703Y-52613003D01*
X251600214Y-52575860D01*
X251524814Y-52552988D01*
X251446400Y-52545265D01*
X250050797Y-52545265D01*
X250163833Y-52432229D01*
X250351357Y-52489113D01*
X250534995Y-52507200D01*
X250657805Y-52507200D01*
X250841443Y-52489113D01*
X251077069Y-52417637D01*
X251294223Y-52301566D01*
X251484560Y-52145360D01*
X251640766Y-51955023D01*
X251756837Y-51737869D01*
X251828313Y-51502243D01*
X251852448Y-51257200D01*
X251828313Y-51012157D01*
X251756837Y-50776531D01*
X251640766Y-50559377D01*
X251484560Y-50369040D01*
X251294223Y-50212834D01*
X251077069Y-50096763D01*
X250841443Y-50025287D01*
X250657805Y-50007200D01*
X250534995Y-50007200D01*
X250351357Y-50025287D01*
X250115731Y-50096763D01*
X249898577Y-50212834D01*
X249708240Y-50369040D01*
X249552034Y-50559377D01*
X249435963Y-50776531D01*
X249364487Y-51012157D01*
X249340352Y-51257200D01*
X249364487Y-51502243D01*
X249421371Y-51689767D01*
X243893297Y-57217842D01*
X243907100Y-57148450D01*
X243907100Y-56567350D01*
X243793733Y-55997417D01*
X243571356Y-55460551D01*
X243248515Y-54977384D01*
X242837616Y-54566485D01*
X242354449Y-54243644D01*
X241817583Y-54021267D01*
X241247650Y-53907900D01*
X240666550Y-53907900D01*
X240096617Y-54021267D01*
X239559751Y-54243644D01*
X239076584Y-54566485D01*
X238665685Y-54977384D01*
X238342844Y-55460551D01*
X238120467Y-55997417D01*
X238007100Y-56567350D01*
X238007100Y-57148450D01*
X238120467Y-57718383D01*
X238342844Y-58255249D01*
X238665685Y-58738416D01*
X239076584Y-59149315D01*
X239559751Y-59472156D01*
X239736339Y-59545301D01*
X214660263Y-59545301D01*
X211951172Y-56836211D01*
X211934728Y-56816174D01*
X211854787Y-56750568D01*
X211763582Y-56701818D01*
X211664619Y-56671798D01*
X211587489Y-56664201D01*
X211587481Y-56664201D01*
X211561701Y-56661662D01*
X211535921Y-56664201D01*
X209233691Y-56664201D01*
X209257800Y-56542993D01*
X209257800Y-56406662D01*
X209348362Y-56316100D01*
X231549629Y-56316100D01*
X231646030Y-56412501D01*
X231777058Y-56500051D01*
X231922649Y-56560357D01*
X232077207Y-56591100D01*
X232234793Y-56591100D01*
X232389351Y-56560357D01*
X232534942Y-56500051D01*
X232665970Y-56412501D01*
X232777401Y-56301070D01*
X232864951Y-56170042D01*
X232925257Y-56024451D01*
X232956000Y-55869893D01*
X232956000Y-55712307D01*
X232925257Y-55557749D01*
X232864951Y-55412158D01*
X232777401Y-55281130D01*
X232665970Y-55169699D01*
X232601030Y-55126307D01*
X232750307Y-55156000D01*
X232907893Y-55156000D01*
X233062451Y-55125257D01*
X233208042Y-55064951D01*
X233339070Y-54977401D01*
X233450501Y-54865970D01*
X233538051Y-54734942D01*
X233598357Y-54589351D01*
X233629100Y-54434793D01*
X233629100Y-54277207D01*
X233598357Y-54122649D01*
X233538051Y-53977058D01*
X233450501Y-53846030D01*
X233339070Y-53734599D01*
X233208042Y-53647049D01*
X233062451Y-53586743D01*
X232907893Y-53556000D01*
X232750307Y-53556000D01*
X232595749Y-53586743D01*
X232450158Y-53647049D01*
X232319130Y-53734599D01*
X232222729Y-53831000D01*
X213697964Y-53831000D01*
X213563405Y-53696441D01*
X213648956Y-53639278D01*
X213760387Y-53527847D01*
X213847937Y-53396819D01*
X213908243Y-53251228D01*
X213938986Y-53096670D01*
X213938986Y-52939084D01*
X213908243Y-52784526D01*
X213847937Y-52638935D01*
X213760387Y-52507907D01*
X213648956Y-52396476D01*
X213517928Y-52308926D01*
X213372337Y-52248620D01*
X213217779Y-52217877D01*
X213060193Y-52217877D01*
X212905635Y-52248620D01*
X212760044Y-52308926D01*
X212629016Y-52396476D01*
X212532615Y-52492877D01*
X182097603Y-52492877D01*
X182071823Y-52490338D01*
X182046043Y-52492877D01*
X182046035Y-52492877D01*
X181968905Y-52500474D01*
X181869942Y-52530494D01*
X181778737Y-52579244D01*
X181698796Y-52644850D01*
X181682356Y-52664882D01*
X181477038Y-52870200D01*
X181442307Y-52870200D01*
X181287749Y-52900943D01*
X181142158Y-52961249D01*
X181011130Y-53048799D01*
X180899699Y-53160230D01*
X180812149Y-53291258D01*
X180751843Y-53436849D01*
X180721100Y-53591407D01*
X180721100Y-53748993D01*
X180751843Y-53903551D01*
X180795439Y-54008800D01*
X162218291Y-54008800D01*
X162242400Y-53887593D01*
X162242400Y-53730007D01*
X162211657Y-53575449D01*
X162151351Y-53429858D01*
X162063801Y-53298830D01*
X161952370Y-53187399D01*
X161821342Y-53099849D01*
X161675751Y-53039543D01*
X161521193Y-53008800D01*
X161363607Y-53008800D01*
X161209049Y-53039543D01*
X161063458Y-53099849D01*
X160932430Y-53187399D01*
X160836029Y-53283800D01*
X160594704Y-53283800D01*
X160680952Y-53154720D01*
X160741258Y-53009129D01*
X160772001Y-52854571D01*
X160772001Y-52696985D01*
X160741258Y-52542427D01*
X160680952Y-52396836D01*
X160593402Y-52265808D01*
X160481971Y-52154377D01*
X160350943Y-52066827D01*
X160205352Y-52006521D01*
X160050794Y-51975778D01*
X159893208Y-51975778D01*
X159738650Y-52006521D01*
X159593059Y-52066827D01*
X159462031Y-52154377D01*
X159372908Y-52243500D01*
X129870579Y-52243500D01*
X129844799Y-52240961D01*
X129819019Y-52243500D01*
X129819012Y-52243500D01*
X129741882Y-52251097D01*
X129642919Y-52281117D01*
X129551714Y-52329867D01*
X129471773Y-52395473D01*
X129455334Y-52415504D01*
X128162439Y-53708400D01*
X128026107Y-53708400D01*
X127871549Y-53739143D01*
X127725958Y-53799449D01*
X127594930Y-53886999D01*
X127483499Y-53998430D01*
X127395949Y-54129458D01*
X127335643Y-54275049D01*
X127304900Y-54429607D01*
X127304900Y-54587193D01*
X127335643Y-54741751D01*
X127395949Y-54887342D01*
X127483499Y-55018370D01*
X127592630Y-55127501D01*
X115394863Y-55127501D01*
X113724271Y-53456910D01*
X113707827Y-53436873D01*
X113627886Y-53371267D01*
X113536681Y-53322517D01*
X113437718Y-53292497D01*
X113360588Y-53284900D01*
X113360580Y-53284900D01*
X113334800Y-53282361D01*
X113309020Y-53284900D01*
X103340288Y-53284900D01*
X103314500Y-53282360D01*
X103288712Y-53284900D01*
X103211582Y-53292497D01*
X103112619Y-53322517D01*
X103021414Y-53371267D01*
X102996518Y-53391699D01*
X102961503Y-53420434D01*
X102961499Y-53420438D01*
X102941473Y-53436873D01*
X102925038Y-53456899D01*
X102610038Y-53771900D01*
X102473707Y-53771900D01*
X102319149Y-53802643D01*
X102173558Y-53862949D01*
X102042530Y-53950499D01*
X101931099Y-54061930D01*
X101843549Y-54192958D01*
X101783243Y-54338549D01*
X101752500Y-54493107D01*
X91865000Y-54493107D01*
X91865000Y-46177200D01*
X249340352Y-46177200D01*
X249364487Y-46422243D01*
X249435963Y-46657869D01*
X249552034Y-46875023D01*
X249708240Y-47065360D01*
X249898577Y-47221566D01*
X250115731Y-47337637D01*
X250351357Y-47409113D01*
X250534995Y-47427200D01*
X250657805Y-47427200D01*
X250841443Y-47409113D01*
X251077069Y-47337637D01*
X251294223Y-47221566D01*
X251484560Y-47065360D01*
X251640766Y-46875023D01*
X251756837Y-46657869D01*
X251828313Y-46422243D01*
X251852448Y-46177200D01*
X251828313Y-45932157D01*
X251756837Y-45696531D01*
X251640766Y-45479377D01*
X251484560Y-45289040D01*
X251294223Y-45132834D01*
X251077069Y-45016763D01*
X250841443Y-44945287D01*
X250657805Y-44927200D01*
X250534995Y-44927200D01*
X250351357Y-44945287D01*
X250115731Y-45016763D01*
X249898577Y-45132834D01*
X249708240Y-45289040D01*
X249552034Y-45479377D01*
X249435963Y-45696531D01*
X249364487Y-45932157D01*
X249340352Y-46177200D01*
X91865000Y-46177200D01*
X91865000Y-42737050D01*
X238007100Y-42737050D01*
X238007100Y-43318150D01*
X238120467Y-43888083D01*
X238342844Y-44424949D01*
X238665685Y-44908116D01*
X239076584Y-45319015D01*
X239559751Y-45641856D01*
X240096617Y-45864233D01*
X240666550Y-45977600D01*
X241247650Y-45977600D01*
X241817583Y-45864233D01*
X242354449Y-45641856D01*
X242837616Y-45319015D01*
X243248515Y-44908116D01*
X243571356Y-44424949D01*
X243793733Y-43888083D01*
X243907100Y-43318150D01*
X243907100Y-42737050D01*
X251837400Y-42737050D01*
X251837400Y-43318150D01*
X251950767Y-43888083D01*
X252173144Y-44424949D01*
X252495985Y-44908116D01*
X252906884Y-45319015D01*
X253390051Y-45641856D01*
X253926917Y-45864233D01*
X254496850Y-45977600D01*
X255077950Y-45977600D01*
X255647883Y-45864233D01*
X256184749Y-45641856D01*
X256667916Y-45319015D01*
X257078815Y-44908116D01*
X257401656Y-44424949D01*
X257624033Y-43888083D01*
X257737400Y-43318150D01*
X257737400Y-42737050D01*
X257624033Y-42167117D01*
X257401656Y-41630251D01*
X257078815Y-41147084D01*
X256667916Y-40736185D01*
X256184749Y-40413344D01*
X255647883Y-40190967D01*
X255077950Y-40077600D01*
X254496850Y-40077600D01*
X253926917Y-40190967D01*
X253390051Y-40413344D01*
X252906884Y-40736185D01*
X252495985Y-41147084D01*
X252173144Y-41630251D01*
X251950767Y-42167117D01*
X251837400Y-42737050D01*
X243907100Y-42737050D01*
X243793733Y-42167117D01*
X243571356Y-41630251D01*
X243248515Y-41147084D01*
X242837616Y-40736185D01*
X242354449Y-40413344D01*
X241817583Y-40190967D01*
X241247650Y-40077600D01*
X240666550Y-40077600D01*
X240096617Y-40190967D01*
X239559751Y-40413344D01*
X239076584Y-40736185D01*
X238665685Y-41147084D01*
X238342844Y-41630251D01*
X238120467Y-42167117D01*
X238007100Y-42737050D01*
X91865000Y-42737050D01*
X91865000Y-38525000D01*
X258020000Y-38525000D01*
X258020001Y-63710000D01*
M02*
