G04 #@! TF.GenerationSoftware,KiCad,Pcbnew,(5.1.4)-1*
G04 #@! TF.CreationDate,2019-10-05T20:16:33-07:00*
G04 #@! TF.ProjectId,teh,7465682e-6b69-4636-9164-5f7063625858,rev?*
G04 #@! TF.SameCoordinates,Original*
G04 #@! TF.FileFunction,Legend,Top*
G04 #@! TF.FilePolarity,Positive*
%FSLAX46Y46*%
G04 Gerber Fmt 4.6, Leading zero omitted, Abs format (unit mm)*
G04 Created by KiCad (PCBNEW (5.1.4)-1) date 2019-10-05 20:16:33*
%MOMM*%
%LPD*%
G04 APERTURE LIST*
%ADD10C,0.050000*%
%ADD11C,0.120000*%
%ADD12C,0.150000*%
G04 APERTURE END LIST*
D10*
X91440000Y-38100000D02*
X258445000Y-38100000D01*
X91440000Y-64135000D02*
X91440000Y-38100000D01*
X258445000Y-64135000D02*
X91440000Y-64135000D01*
X258445000Y-38100000D02*
X258445000Y-64135000D01*
D11*
X242627938Y-42950000D02*
G75*
G03X242627938Y-42950000I-1647938J0D01*
G01*
X251926400Y-52527200D02*
X249266400Y-52527200D01*
X251926400Y-52527200D02*
X251926400Y-44847200D01*
X251926400Y-44847200D02*
X249266400Y-44847200D01*
X249266400Y-52527200D02*
X249266400Y-44847200D01*
X249266400Y-55127200D02*
X249266400Y-53797200D01*
X250596400Y-55127200D02*
X249266400Y-55127200D01*
D12*
X234393700Y-55795500D02*
X229943700Y-55795500D01*
X235918700Y-62695500D02*
X229943700Y-62695500D01*
D11*
X238630779Y-61453300D02*
X238305221Y-61453300D01*
X238630779Y-62473300D02*
X238305221Y-62473300D01*
D12*
X133381000Y-55915000D02*
X128931000Y-55915000D01*
X134906000Y-62815000D02*
X128931000Y-62815000D01*
D11*
X106538518Y-52285000D02*
X106538518Y-50000000D01*
X105068518Y-52285000D02*
X106538518Y-52285000D01*
X105068518Y-50000000D02*
X105068518Y-52285000D01*
X91975000Y-50000000D02*
X91975000Y-52285000D01*
X91975000Y-52285000D02*
X93445000Y-52285000D01*
X93445000Y-52285000D02*
X93445000Y-50000000D01*
X107250771Y-50000000D02*
X107250771Y-52285000D01*
X107250771Y-52285000D02*
X108720771Y-52285000D01*
X108720771Y-52285000D02*
X108720771Y-50000000D01*
X95627253Y-52285000D02*
X95627253Y-50000000D01*
X94157253Y-52285000D02*
X95627253Y-52285000D01*
X94157253Y-50000000D02*
X94157253Y-52285000D01*
X110903024Y-52285000D02*
X110903024Y-50000000D01*
X109433024Y-52285000D02*
X110903024Y-52285000D01*
X109433024Y-50000000D02*
X109433024Y-52285000D01*
X96339506Y-50000000D02*
X96339506Y-52285000D01*
X96339506Y-52285000D02*
X97809506Y-52285000D01*
X97809506Y-52285000D02*
X97809506Y-50000000D01*
X111615277Y-50000000D02*
X111615277Y-52285000D01*
X111615277Y-52285000D02*
X113085277Y-52285000D01*
X113085277Y-52285000D02*
X113085277Y-50000000D01*
X99991759Y-52285000D02*
X99991759Y-50000000D01*
X98521759Y-52285000D02*
X99991759Y-52285000D01*
X98521759Y-50000000D02*
X98521759Y-52285000D01*
X113797530Y-50000000D02*
X113797530Y-52285000D01*
X113797530Y-52285000D02*
X115267530Y-52285000D01*
X115267530Y-52285000D02*
X115267530Y-50000000D01*
X102174012Y-52285000D02*
X102174012Y-50000000D01*
X100704012Y-52285000D02*
X102174012Y-52285000D01*
X100704012Y-50000000D02*
X100704012Y-52285000D01*
X115979783Y-50000000D02*
X115979783Y-52285000D01*
X115979783Y-52285000D02*
X117449783Y-52285000D01*
X117449783Y-52285000D02*
X117449783Y-50000000D01*
X104356265Y-52285000D02*
X104356265Y-50000000D01*
X102886265Y-52285000D02*
X104356265Y-52285000D01*
X102886265Y-50000000D02*
X102886265Y-52285000D01*
X143636819Y-52285000D02*
X143636819Y-50000000D01*
X142166819Y-52285000D02*
X143636819Y-52285000D01*
X142166819Y-50000000D02*
X142166819Y-52285000D01*
X139984566Y-50000000D02*
X139984566Y-52285000D01*
X139984566Y-52285000D02*
X141454566Y-52285000D01*
X141454566Y-52285000D02*
X141454566Y-50000000D01*
X139272313Y-52285000D02*
X139272313Y-50000000D01*
X137802313Y-52285000D02*
X139272313Y-52285000D01*
X137802313Y-50000000D02*
X137802313Y-52285000D01*
X135620060Y-50000000D02*
X135620060Y-52285000D01*
X135620060Y-52285000D02*
X137090060Y-52285000D01*
X137090060Y-52285000D02*
X137090060Y-50000000D01*
X134907807Y-52285000D02*
X134907807Y-50000000D01*
X133437807Y-52285000D02*
X134907807Y-52285000D01*
X133437807Y-50000000D02*
X133437807Y-52285000D01*
X131255554Y-50000000D02*
X131255554Y-52285000D01*
X131255554Y-52285000D02*
X132725554Y-52285000D01*
X132725554Y-52285000D02*
X132725554Y-50000000D01*
X129073301Y-50000000D02*
X129073301Y-52285000D01*
X129073301Y-52285000D02*
X130543301Y-52285000D01*
X130543301Y-52285000D02*
X130543301Y-50000000D01*
X128361048Y-52285000D02*
X128361048Y-50000000D01*
X126891048Y-52285000D02*
X128361048Y-52285000D01*
X126891048Y-50000000D02*
X126891048Y-52285000D01*
X124708795Y-50000000D02*
X124708795Y-52285000D01*
X124708795Y-52285000D02*
X126178795Y-52285000D01*
X126178795Y-52285000D02*
X126178795Y-50000000D01*
X123996542Y-52285000D02*
X123996542Y-50000000D01*
X122526542Y-52285000D02*
X123996542Y-52285000D01*
X122526542Y-50000000D02*
X122526542Y-52285000D01*
X120344289Y-50000000D02*
X120344289Y-52285000D01*
X120344289Y-52285000D02*
X121814289Y-52285000D01*
X121814289Y-52285000D02*
X121814289Y-50000000D01*
X119632036Y-52285000D02*
X119632036Y-50000000D01*
X118162036Y-52285000D02*
X119632036Y-52285000D01*
X118162036Y-50000000D02*
X118162036Y-52285000D01*
X157442590Y-50000000D02*
X157442590Y-52285000D01*
X157442590Y-52285000D02*
X158912590Y-52285000D01*
X158912590Y-52285000D02*
X158912590Y-50000000D01*
X145819072Y-52285000D02*
X145819072Y-50000000D01*
X144349072Y-52285000D02*
X145819072Y-52285000D01*
X144349072Y-50000000D02*
X144349072Y-52285000D01*
X161094843Y-52285000D02*
X161094843Y-50000000D01*
X159624843Y-52285000D02*
X161094843Y-52285000D01*
X159624843Y-50000000D02*
X159624843Y-52285000D01*
X146531325Y-50000000D02*
X146531325Y-52285000D01*
X146531325Y-52285000D02*
X148001325Y-52285000D01*
X148001325Y-52285000D02*
X148001325Y-50000000D01*
X161807096Y-50000000D02*
X161807096Y-52285000D01*
X161807096Y-52285000D02*
X163277096Y-52285000D01*
X163277096Y-52285000D02*
X163277096Y-50000000D01*
X150183578Y-52285000D02*
X150183578Y-50000000D01*
X148713578Y-52285000D02*
X150183578Y-52285000D01*
X148713578Y-50000000D02*
X148713578Y-52285000D01*
X165459349Y-52285000D02*
X165459349Y-50000000D01*
X163989349Y-52285000D02*
X165459349Y-52285000D01*
X163989349Y-50000000D02*
X163989349Y-52285000D01*
X150895831Y-50000000D02*
X150895831Y-52285000D01*
X150895831Y-52285000D02*
X152365831Y-52285000D01*
X152365831Y-52285000D02*
X152365831Y-50000000D01*
X166171602Y-50000000D02*
X166171602Y-52285000D01*
X166171602Y-52285000D02*
X167641602Y-52285000D01*
X167641602Y-52285000D02*
X167641602Y-50000000D01*
X154548084Y-52285000D02*
X154548084Y-50000000D01*
X153078084Y-52285000D02*
X154548084Y-52285000D01*
X153078084Y-50000000D02*
X153078084Y-52285000D01*
X169823855Y-52285000D02*
X169823855Y-50000000D01*
X168353855Y-52285000D02*
X169823855Y-52285000D01*
X168353855Y-50000000D02*
X168353855Y-52285000D01*
X155260337Y-50000000D02*
X155260337Y-52285000D01*
X155260337Y-52285000D02*
X156730337Y-52285000D01*
X156730337Y-52285000D02*
X156730337Y-50000000D01*
X183629626Y-50000000D02*
X183629626Y-52285000D01*
X183629626Y-52285000D02*
X185099626Y-52285000D01*
X185099626Y-52285000D02*
X185099626Y-50000000D01*
X172006108Y-52285000D02*
X172006108Y-50000000D01*
X170536108Y-52285000D02*
X172006108Y-52285000D01*
X170536108Y-50000000D02*
X170536108Y-52285000D01*
X187281879Y-52285000D02*
X187281879Y-50000000D01*
X185811879Y-52285000D02*
X187281879Y-52285000D01*
X185811879Y-50000000D02*
X185811879Y-52285000D01*
X172718361Y-50000000D02*
X172718361Y-52285000D01*
X172718361Y-52285000D02*
X174188361Y-52285000D01*
X174188361Y-52285000D02*
X174188361Y-50000000D01*
X189464132Y-52285000D02*
X189464132Y-50000000D01*
X187994132Y-52285000D02*
X189464132Y-52285000D01*
X187994132Y-50000000D02*
X187994132Y-52285000D01*
X176370614Y-52285000D02*
X176370614Y-50000000D01*
X174900614Y-52285000D02*
X176370614Y-52285000D01*
X174900614Y-50000000D02*
X174900614Y-52285000D01*
X191646385Y-52285000D02*
X191646385Y-50000000D01*
X190176385Y-52285000D02*
X191646385Y-52285000D01*
X190176385Y-50000000D02*
X190176385Y-52285000D01*
X177082867Y-50000000D02*
X177082867Y-52285000D01*
X177082867Y-52285000D02*
X178552867Y-52285000D01*
X178552867Y-52285000D02*
X178552867Y-50000000D01*
X193828638Y-52285000D02*
X193828638Y-50000000D01*
X192358638Y-52285000D02*
X193828638Y-52285000D01*
X192358638Y-50000000D02*
X192358638Y-52285000D01*
X180735120Y-52285000D02*
X180735120Y-50000000D01*
X179265120Y-52285000D02*
X180735120Y-52285000D01*
X179265120Y-50000000D02*
X179265120Y-52285000D01*
X196010891Y-52285000D02*
X196010891Y-50000000D01*
X194540891Y-52285000D02*
X196010891Y-52285000D01*
X194540891Y-50000000D02*
X194540891Y-52285000D01*
X181447373Y-50000000D02*
X181447373Y-52285000D01*
X181447373Y-52285000D02*
X182917373Y-52285000D01*
X182917373Y-52285000D02*
X182917373Y-50000000D01*
X211286662Y-52285000D02*
X211286662Y-50000000D01*
X209816662Y-52285000D02*
X211286662Y-52285000D01*
X209816662Y-50000000D02*
X209816662Y-52285000D01*
X196723144Y-50000000D02*
X196723144Y-52285000D01*
X196723144Y-52285000D02*
X198193144Y-52285000D01*
X198193144Y-52285000D02*
X198193144Y-50000000D01*
X211998915Y-50000000D02*
X211998915Y-52285000D01*
X211998915Y-52285000D02*
X213468915Y-52285000D01*
X213468915Y-52285000D02*
X213468915Y-50000000D01*
X198905397Y-50000000D02*
X198905397Y-52285000D01*
X198905397Y-52285000D02*
X200375397Y-52285000D01*
X200375397Y-52285000D02*
X200375397Y-50000000D01*
X215651168Y-52285000D02*
X215651168Y-50000000D01*
X214181168Y-52285000D02*
X215651168Y-52285000D01*
X214181168Y-50000000D02*
X214181168Y-52285000D01*
X201087650Y-50000000D02*
X201087650Y-52285000D01*
X201087650Y-52285000D02*
X202557650Y-52285000D01*
X202557650Y-52285000D02*
X202557650Y-50000000D01*
X216363421Y-50000000D02*
X216363421Y-52285000D01*
X216363421Y-52285000D02*
X217833421Y-52285000D01*
X217833421Y-52285000D02*
X217833421Y-50000000D01*
X204739903Y-52285000D02*
X204739903Y-50000000D01*
X203269903Y-52285000D02*
X204739903Y-52285000D01*
X203269903Y-50000000D02*
X203269903Y-52285000D01*
X220015674Y-52285000D02*
X220015674Y-50000000D01*
X218545674Y-52285000D02*
X220015674Y-52285000D01*
X218545674Y-50000000D02*
X218545674Y-52285000D01*
X205452156Y-50000000D02*
X205452156Y-52285000D01*
X205452156Y-52285000D02*
X206922156Y-52285000D01*
X206922156Y-52285000D02*
X206922156Y-50000000D01*
X220727927Y-50000000D02*
X220727927Y-52285000D01*
X220727927Y-52285000D02*
X222197927Y-52285000D01*
X222197927Y-52285000D02*
X222197927Y-50000000D01*
X209104409Y-52285000D02*
X209104409Y-50000000D01*
X207634409Y-52285000D02*
X209104409Y-52285000D01*
X207634409Y-50000000D02*
X207634409Y-52285000D01*
X236003698Y-50000000D02*
X236003698Y-52285000D01*
X236003698Y-52285000D02*
X237473698Y-52285000D01*
X237473698Y-52285000D02*
X237473698Y-50000000D01*
X224380180Y-52285000D02*
X224380180Y-50000000D01*
X222910180Y-52285000D02*
X224380180Y-52285000D01*
X222910180Y-50000000D02*
X222910180Y-52285000D01*
X239655951Y-52285000D02*
X239655951Y-50000000D01*
X238185951Y-52285000D02*
X239655951Y-52285000D01*
X238185951Y-50000000D02*
X238185951Y-52285000D01*
X225092433Y-50000000D02*
X225092433Y-52285000D01*
X225092433Y-52285000D02*
X226562433Y-52285000D01*
X226562433Y-52285000D02*
X226562433Y-50000000D01*
X240368204Y-50000000D02*
X240368204Y-52285000D01*
X240368204Y-52285000D02*
X241838204Y-52285000D01*
X241838204Y-52285000D02*
X241838204Y-50000000D01*
X228744686Y-52285000D02*
X228744686Y-50000000D01*
X227274686Y-52285000D02*
X228744686Y-52285000D01*
X227274686Y-50000000D02*
X227274686Y-52285000D01*
X244020457Y-52285000D02*
X244020457Y-50000000D01*
X242550457Y-52285000D02*
X244020457Y-52285000D01*
X242550457Y-50000000D02*
X242550457Y-52285000D01*
X229456939Y-50000000D02*
X229456939Y-52285000D01*
X229456939Y-52285000D02*
X230926939Y-52285000D01*
X230926939Y-52285000D02*
X230926939Y-50000000D01*
X244732710Y-50000000D02*
X244732710Y-52285000D01*
X244732710Y-52285000D02*
X246202710Y-52285000D01*
X246202710Y-52285000D02*
X246202710Y-50000000D01*
X233109192Y-52285000D02*
X233109192Y-50000000D01*
X231639192Y-52285000D02*
X233109192Y-52285000D01*
X231639192Y-50000000D02*
X231639192Y-52285000D01*
X248385000Y-52285000D02*
X248385000Y-50000000D01*
X246915000Y-52285000D02*
X248385000Y-52285000D01*
X246915000Y-50000000D02*
X246915000Y-52285000D01*
X233821445Y-50000000D02*
X233821445Y-52285000D01*
X233821445Y-52285000D02*
X235291445Y-52285000D01*
X235291445Y-52285000D02*
X235291445Y-50000000D01*
X112270000Y-60797221D02*
X112270000Y-61122779D01*
X111250000Y-60797221D02*
X111250000Y-61122779D01*
X138940000Y-60797221D02*
X138940000Y-61122779D01*
X137920000Y-60797221D02*
X137920000Y-61122779D01*
X165610000Y-60797221D02*
X165610000Y-61122779D01*
X164590000Y-60797221D02*
X164590000Y-61122779D01*
X189990000Y-60797221D02*
X189990000Y-61122779D01*
X191010000Y-60797221D02*
X191010000Y-61122779D01*
X217680000Y-60797221D02*
X217680000Y-61122779D01*
X216660000Y-60797221D02*
X216660000Y-61122779D01*
D12*
X108640000Y-62815000D02*
X102665000Y-62815000D01*
X107115000Y-55915000D02*
X102665000Y-55915000D01*
X159647000Y-55915000D02*
X155197000Y-55915000D01*
X161172000Y-62815000D02*
X155197000Y-62815000D01*
X187438000Y-62815000D02*
X181463000Y-62815000D01*
X185913000Y-55915000D02*
X181463000Y-55915000D01*
X213704000Y-62815000D02*
X207729000Y-62815000D01*
X212179000Y-55915000D02*
X207729000Y-55915000D01*
M02*
