M48
; DRILL file {KiCad (5.1.4)-1} date 10/5/2019 8:18:58 PM
; FORMAT={-:-/ absolute / inch / decimal}
; #@! TF.CreationDate,2019-10-05T20:18:58-07:00
; #@! TF.GenerationSoftware,Kicad,Pcbnew,(5.1.4)-1
FMAT,2
INCH
T1C0.0157
T2C0.0394
T3C0.1417
%
G90
G05
T1
X3.65Y-1.9
X3.775Y-1.8
X4.0134Y-2.4524
X4.0375Y-2.1485
X4.05Y-1.9
X4.078Y-2.1665
X4.2Y-1.825
X4.2825Y-2.1765
X4.317Y-2.216
X4.575Y-1.925
X4.75Y-1.8
X5.025Y-1.85
X5.0435Y-2.146
X5.0475Y-2.4524
X5.105Y-2.1625
X5.225Y-1.925
X5.2805Y-2.1625
X5.3555Y-2.167
X5.45Y-1.9
X5.575Y-1.8
X6.0Y-1.825
X6.0816Y-2.4524
X6.145Y-2.154
X6.1665Y-2.19
X6.2Y-1.925
X6.2981Y-2.0778
X6.356Y-2.1185
X6.425Y-1.85
X6.65Y-1.9
X7.0Y-1.925
X7.1157Y-2.4524
X7.1465Y-2.113
X7.15Y-1.775
X7.185Y-2.177
X7.3735Y-2.1265
X7.424Y-2.2175
X7.6Y-1.75
X7.7Y-1.8
X7.975Y-1.875
X8.1498Y-2.4524
X8.1525Y-2.1465
X8.207Y-2.223
X8.35Y-1.85
X8.3805Y-2.158
X8.3913Y-2.0873
X8.85Y-1.8
X9.0244Y-2.4477
X9.14Y-2.1965
X9.1665Y-2.14
X9.2Y-1.8
X9.425Y-1.85
T2
X9.866Y-1.818
X9.866Y-1.918
X9.866Y-2.018
X9.866Y-2.118
T3
X9.4865Y-1.694
X9.4865Y-2.2385
X10.031Y-1.694
X10.031Y-2.2385
T0
M30
