G04 #@! TF.GenerationSoftware,KiCad,Pcbnew,(5.1.4)-1*
G04 #@! TF.CreationDate,2019-08-22T22:39:33-07:00*
G04 #@! TF.ProjectId,the,7468652e-6b69-4636-9164-5f7063625858,rev?*
G04 #@! TF.SameCoordinates,Original*
G04 #@! TF.FileFunction,Soldermask,Top*
G04 #@! TF.FilePolarity,Negative*
%FSLAX46Y46*%
G04 Gerber Fmt 4.6, Leading zero omitted, Abs format (unit mm)*
G04 Created by KiCad (PCBNEW (5.1.4)-1) date 2019-08-22 22:39:33*
%MOMM*%
%LPD*%
G04 APERTURE LIST*
%ADD10C,0.120000*%
%ADD11C,0.100000*%
G04 APERTURE END LIST*
D10*
X63500000Y-119380000D02*
X63500000Y-38100000D01*
X88900000Y-119380000D02*
X63500000Y-119380000D01*
X88900000Y-38100000D02*
X88900000Y-119380000D01*
X63500000Y-38100000D02*
X88900000Y-38100000D01*
D11*
G36*
X74484591Y-113778085D02*
G01*
X74518569Y-113788393D01*
X74549890Y-113805134D01*
X74577339Y-113827661D01*
X74599866Y-113855110D01*
X74616607Y-113886431D01*
X74626915Y-113920409D01*
X74631000Y-113961890D01*
X74631000Y-114638110D01*
X74626915Y-114679591D01*
X74616607Y-114713569D01*
X74599866Y-114744890D01*
X74577339Y-114772339D01*
X74549890Y-114794866D01*
X74518569Y-114811607D01*
X74484591Y-114821915D01*
X74443110Y-114826000D01*
X73841890Y-114826000D01*
X73800409Y-114821915D01*
X73766431Y-114811607D01*
X73735110Y-114794866D01*
X73707661Y-114772339D01*
X73685134Y-114744890D01*
X73668393Y-114713569D01*
X73658085Y-114679591D01*
X73654000Y-114638110D01*
X73654000Y-113961890D01*
X73658085Y-113920409D01*
X73668393Y-113886431D01*
X73685134Y-113855110D01*
X73707661Y-113827661D01*
X73735110Y-113805134D01*
X73766431Y-113788393D01*
X73800409Y-113778085D01*
X73841890Y-113774000D01*
X74443110Y-113774000D01*
X74484591Y-113778085D01*
X74484591Y-113778085D01*
G37*
G36*
X76059591Y-113778085D02*
G01*
X76093569Y-113788393D01*
X76124890Y-113805134D01*
X76152339Y-113827661D01*
X76174866Y-113855110D01*
X76191607Y-113886431D01*
X76201915Y-113920409D01*
X76206000Y-113961890D01*
X76206000Y-114638110D01*
X76201915Y-114679591D01*
X76191607Y-114713569D01*
X76174866Y-114744890D01*
X76152339Y-114772339D01*
X76124890Y-114794866D01*
X76093569Y-114811607D01*
X76059591Y-114821915D01*
X76018110Y-114826000D01*
X75416890Y-114826000D01*
X75375409Y-114821915D01*
X75341431Y-114811607D01*
X75310110Y-114794866D01*
X75282661Y-114772339D01*
X75260134Y-114744890D01*
X75243393Y-114713569D01*
X75233085Y-114679591D01*
X75229000Y-114638110D01*
X75229000Y-113961890D01*
X75233085Y-113920409D01*
X75243393Y-113886431D01*
X75260134Y-113855110D01*
X75282661Y-113827661D01*
X75310110Y-113805134D01*
X75341431Y-113788393D01*
X75375409Y-113778085D01*
X75416890Y-113774000D01*
X76018110Y-113774000D01*
X76059591Y-113778085D01*
X76059591Y-113778085D01*
G37*
G36*
X76059591Y-111017203D02*
G01*
X76093569Y-111027511D01*
X76124890Y-111044252D01*
X76152339Y-111066779D01*
X76174866Y-111094228D01*
X76191607Y-111125549D01*
X76201915Y-111159527D01*
X76206000Y-111201008D01*
X76206000Y-111877228D01*
X76201915Y-111918709D01*
X76191607Y-111952687D01*
X76174866Y-111984008D01*
X76152339Y-112011457D01*
X76124890Y-112033984D01*
X76093569Y-112050725D01*
X76059591Y-112061033D01*
X76018110Y-112065118D01*
X75416890Y-112065118D01*
X75375409Y-112061033D01*
X75341431Y-112050725D01*
X75310110Y-112033984D01*
X75282661Y-112011457D01*
X75260134Y-111984008D01*
X75243393Y-111952687D01*
X75233085Y-111918709D01*
X75229000Y-111877228D01*
X75229000Y-111201008D01*
X75233085Y-111159527D01*
X75243393Y-111125549D01*
X75260134Y-111094228D01*
X75282661Y-111066779D01*
X75310110Y-111044252D01*
X75341431Y-111027511D01*
X75375409Y-111017203D01*
X75416890Y-111013118D01*
X76018110Y-111013118D01*
X76059591Y-111017203D01*
X76059591Y-111017203D01*
G37*
G36*
X74484591Y-111017203D02*
G01*
X74518569Y-111027511D01*
X74549890Y-111044252D01*
X74577339Y-111066779D01*
X74599866Y-111094228D01*
X74616607Y-111125549D01*
X74626915Y-111159527D01*
X74631000Y-111201008D01*
X74631000Y-111877228D01*
X74626915Y-111918709D01*
X74616607Y-111952687D01*
X74599866Y-111984008D01*
X74577339Y-112011457D01*
X74549890Y-112033984D01*
X74518569Y-112050725D01*
X74484591Y-112061033D01*
X74443110Y-112065118D01*
X73841890Y-112065118D01*
X73800409Y-112061033D01*
X73766431Y-112050725D01*
X73735110Y-112033984D01*
X73707661Y-112011457D01*
X73685134Y-111984008D01*
X73668393Y-111952687D01*
X73658085Y-111918709D01*
X73654000Y-111877228D01*
X73654000Y-111201008D01*
X73658085Y-111159527D01*
X73668393Y-111125549D01*
X73685134Y-111094228D01*
X73707661Y-111066779D01*
X73735110Y-111044252D01*
X73766431Y-111027511D01*
X73800409Y-111017203D01*
X73841890Y-111013118D01*
X74443110Y-111013118D01*
X74484591Y-111017203D01*
X74484591Y-111017203D01*
G37*
G36*
X76059591Y-108256334D02*
G01*
X76093569Y-108266642D01*
X76124890Y-108283383D01*
X76152339Y-108305910D01*
X76174866Y-108333359D01*
X76191607Y-108364680D01*
X76201915Y-108398658D01*
X76206000Y-108440139D01*
X76206000Y-109116359D01*
X76201915Y-109157840D01*
X76191607Y-109191818D01*
X76174866Y-109223139D01*
X76152339Y-109250588D01*
X76124890Y-109273115D01*
X76093569Y-109289856D01*
X76059591Y-109300164D01*
X76018110Y-109304249D01*
X75416890Y-109304249D01*
X75375409Y-109300164D01*
X75341431Y-109289856D01*
X75310110Y-109273115D01*
X75282661Y-109250588D01*
X75260134Y-109223139D01*
X75243393Y-109191818D01*
X75233085Y-109157840D01*
X75229000Y-109116359D01*
X75229000Y-108440139D01*
X75233085Y-108398658D01*
X75243393Y-108364680D01*
X75260134Y-108333359D01*
X75282661Y-108305910D01*
X75310110Y-108283383D01*
X75341431Y-108266642D01*
X75375409Y-108256334D01*
X75416890Y-108252249D01*
X76018110Y-108252249D01*
X76059591Y-108256334D01*
X76059591Y-108256334D01*
G37*
G36*
X74484591Y-108256334D02*
G01*
X74518569Y-108266642D01*
X74549890Y-108283383D01*
X74577339Y-108305910D01*
X74599866Y-108333359D01*
X74616607Y-108364680D01*
X74626915Y-108398658D01*
X74631000Y-108440139D01*
X74631000Y-109116359D01*
X74626915Y-109157840D01*
X74616607Y-109191818D01*
X74599866Y-109223139D01*
X74577339Y-109250588D01*
X74549890Y-109273115D01*
X74518569Y-109289856D01*
X74484591Y-109300164D01*
X74443110Y-109304249D01*
X73841890Y-109304249D01*
X73800409Y-109300164D01*
X73766431Y-109289856D01*
X73735110Y-109273115D01*
X73707661Y-109250588D01*
X73685134Y-109223139D01*
X73668393Y-109191818D01*
X73658085Y-109157840D01*
X73654000Y-109116359D01*
X73654000Y-108440139D01*
X73658085Y-108398658D01*
X73668393Y-108364680D01*
X73685134Y-108333359D01*
X73707661Y-108305910D01*
X73735110Y-108283383D01*
X73766431Y-108266642D01*
X73800409Y-108256334D01*
X73841890Y-108252249D01*
X74443110Y-108252249D01*
X74484591Y-108256334D01*
X74484591Y-108256334D01*
G37*
G36*
X76059591Y-105495465D02*
G01*
X76093569Y-105505773D01*
X76124890Y-105522514D01*
X76152339Y-105545041D01*
X76174866Y-105572490D01*
X76191607Y-105603811D01*
X76201915Y-105637789D01*
X76206000Y-105679270D01*
X76206000Y-106355490D01*
X76201915Y-106396971D01*
X76191607Y-106430949D01*
X76174866Y-106462270D01*
X76152339Y-106489719D01*
X76124890Y-106512246D01*
X76093569Y-106528987D01*
X76059591Y-106539295D01*
X76018110Y-106543380D01*
X75416890Y-106543380D01*
X75375409Y-106539295D01*
X75341431Y-106528987D01*
X75310110Y-106512246D01*
X75282661Y-106489719D01*
X75260134Y-106462270D01*
X75243393Y-106430949D01*
X75233085Y-106396971D01*
X75229000Y-106355490D01*
X75229000Y-105679270D01*
X75233085Y-105637789D01*
X75243393Y-105603811D01*
X75260134Y-105572490D01*
X75282661Y-105545041D01*
X75310110Y-105522514D01*
X75341431Y-105505773D01*
X75375409Y-105495465D01*
X75416890Y-105491380D01*
X76018110Y-105491380D01*
X76059591Y-105495465D01*
X76059591Y-105495465D01*
G37*
G36*
X74484591Y-105495465D02*
G01*
X74518569Y-105505773D01*
X74549890Y-105522514D01*
X74577339Y-105545041D01*
X74599866Y-105572490D01*
X74616607Y-105603811D01*
X74626915Y-105637789D01*
X74631000Y-105679270D01*
X74631000Y-106355490D01*
X74626915Y-106396971D01*
X74616607Y-106430949D01*
X74599866Y-106462270D01*
X74577339Y-106489719D01*
X74549890Y-106512246D01*
X74518569Y-106528987D01*
X74484591Y-106539295D01*
X74443110Y-106543380D01*
X73841890Y-106543380D01*
X73800409Y-106539295D01*
X73766431Y-106528987D01*
X73735110Y-106512246D01*
X73707661Y-106489719D01*
X73685134Y-106462270D01*
X73668393Y-106430949D01*
X73658085Y-106396971D01*
X73654000Y-106355490D01*
X73654000Y-105679270D01*
X73658085Y-105637789D01*
X73668393Y-105603811D01*
X73685134Y-105572490D01*
X73707661Y-105545041D01*
X73735110Y-105522514D01*
X73766431Y-105505773D01*
X73800409Y-105495465D01*
X73841890Y-105491380D01*
X74443110Y-105491380D01*
X74484591Y-105495465D01*
X74484591Y-105495465D01*
G37*
G36*
X76059591Y-102734596D02*
G01*
X76093569Y-102744904D01*
X76124890Y-102761645D01*
X76152339Y-102784172D01*
X76174866Y-102811621D01*
X76191607Y-102842942D01*
X76201915Y-102876920D01*
X76206000Y-102918401D01*
X76206000Y-103594621D01*
X76201915Y-103636102D01*
X76191607Y-103670080D01*
X76174866Y-103701401D01*
X76152339Y-103728850D01*
X76124890Y-103751377D01*
X76093569Y-103768118D01*
X76059591Y-103778426D01*
X76018110Y-103782511D01*
X75416890Y-103782511D01*
X75375409Y-103778426D01*
X75341431Y-103768118D01*
X75310110Y-103751377D01*
X75282661Y-103728850D01*
X75260134Y-103701401D01*
X75243393Y-103670080D01*
X75233085Y-103636102D01*
X75229000Y-103594621D01*
X75229000Y-102918401D01*
X75233085Y-102876920D01*
X75243393Y-102842942D01*
X75260134Y-102811621D01*
X75282661Y-102784172D01*
X75310110Y-102761645D01*
X75341431Y-102744904D01*
X75375409Y-102734596D01*
X75416890Y-102730511D01*
X76018110Y-102730511D01*
X76059591Y-102734596D01*
X76059591Y-102734596D01*
G37*
G36*
X74484591Y-102734596D02*
G01*
X74518569Y-102744904D01*
X74549890Y-102761645D01*
X74577339Y-102784172D01*
X74599866Y-102811621D01*
X74616607Y-102842942D01*
X74626915Y-102876920D01*
X74631000Y-102918401D01*
X74631000Y-103594621D01*
X74626915Y-103636102D01*
X74616607Y-103670080D01*
X74599866Y-103701401D01*
X74577339Y-103728850D01*
X74549890Y-103751377D01*
X74518569Y-103768118D01*
X74484591Y-103778426D01*
X74443110Y-103782511D01*
X73841890Y-103782511D01*
X73800409Y-103778426D01*
X73766431Y-103768118D01*
X73735110Y-103751377D01*
X73707661Y-103728850D01*
X73685134Y-103701401D01*
X73668393Y-103670080D01*
X73658085Y-103636102D01*
X73654000Y-103594621D01*
X73654000Y-102918401D01*
X73658085Y-102876920D01*
X73668393Y-102842942D01*
X73685134Y-102811621D01*
X73707661Y-102784172D01*
X73735110Y-102761645D01*
X73766431Y-102744904D01*
X73800409Y-102734596D01*
X73841890Y-102730511D01*
X74443110Y-102730511D01*
X74484591Y-102734596D01*
X74484591Y-102734596D01*
G37*
G36*
X85751000Y-102786000D02*
G01*
X79349000Y-102786000D01*
X79349000Y-101234000D01*
X85751000Y-101234000D01*
X85751000Y-102786000D01*
X85751000Y-102786000D01*
G37*
G36*
X76059591Y-99973727D02*
G01*
X76093569Y-99984035D01*
X76124890Y-100000776D01*
X76152339Y-100023303D01*
X76174866Y-100050752D01*
X76191607Y-100082073D01*
X76201915Y-100116051D01*
X76206000Y-100157532D01*
X76206000Y-100833752D01*
X76201915Y-100875233D01*
X76191607Y-100909211D01*
X76174866Y-100940532D01*
X76152339Y-100967981D01*
X76124890Y-100990508D01*
X76093569Y-101007249D01*
X76059591Y-101017557D01*
X76018110Y-101021642D01*
X75416890Y-101021642D01*
X75375409Y-101017557D01*
X75341431Y-101007249D01*
X75310110Y-100990508D01*
X75282661Y-100967981D01*
X75260134Y-100940532D01*
X75243393Y-100909211D01*
X75233085Y-100875233D01*
X75229000Y-100833752D01*
X75229000Y-100157532D01*
X75233085Y-100116051D01*
X75243393Y-100082073D01*
X75260134Y-100050752D01*
X75282661Y-100023303D01*
X75310110Y-100000776D01*
X75341431Y-99984035D01*
X75375409Y-99973727D01*
X75416890Y-99969642D01*
X76018110Y-99969642D01*
X76059591Y-99973727D01*
X76059591Y-99973727D01*
G37*
G36*
X74484591Y-99973727D02*
G01*
X74518569Y-99984035D01*
X74549890Y-100000776D01*
X74577339Y-100023303D01*
X74599866Y-100050752D01*
X74616607Y-100082073D01*
X74626915Y-100116051D01*
X74631000Y-100157532D01*
X74631000Y-100833752D01*
X74626915Y-100875233D01*
X74616607Y-100909211D01*
X74599866Y-100940532D01*
X74577339Y-100967981D01*
X74549890Y-100990508D01*
X74518569Y-101007249D01*
X74484591Y-101017557D01*
X74443110Y-101021642D01*
X73841890Y-101021642D01*
X73800409Y-101017557D01*
X73766431Y-101007249D01*
X73735110Y-100990508D01*
X73707661Y-100967981D01*
X73685134Y-100940532D01*
X73668393Y-100909211D01*
X73658085Y-100875233D01*
X73654000Y-100833752D01*
X73654000Y-100157532D01*
X73658085Y-100116051D01*
X73668393Y-100082073D01*
X73685134Y-100050752D01*
X73707661Y-100023303D01*
X73735110Y-100000776D01*
X73766431Y-99984035D01*
X73800409Y-99973727D01*
X73841890Y-99969642D01*
X74443110Y-99969642D01*
X74484591Y-99973727D01*
X74484591Y-99973727D01*
G37*
G36*
X76059591Y-97212858D02*
G01*
X76093569Y-97223166D01*
X76124890Y-97239907D01*
X76152339Y-97262434D01*
X76174866Y-97289883D01*
X76191607Y-97321204D01*
X76201915Y-97355182D01*
X76206000Y-97396663D01*
X76206000Y-98072883D01*
X76201915Y-98114364D01*
X76191607Y-98148342D01*
X76174866Y-98179663D01*
X76152339Y-98207112D01*
X76124890Y-98229639D01*
X76093569Y-98246380D01*
X76059591Y-98256688D01*
X76018110Y-98260773D01*
X75416890Y-98260773D01*
X75375409Y-98256688D01*
X75341431Y-98246380D01*
X75310110Y-98229639D01*
X75282661Y-98207112D01*
X75260134Y-98179663D01*
X75243393Y-98148342D01*
X75233085Y-98114364D01*
X75229000Y-98072883D01*
X75229000Y-97396663D01*
X75233085Y-97355182D01*
X75243393Y-97321204D01*
X75260134Y-97289883D01*
X75282661Y-97262434D01*
X75310110Y-97239907D01*
X75341431Y-97223166D01*
X75375409Y-97212858D01*
X75416890Y-97208773D01*
X76018110Y-97208773D01*
X76059591Y-97212858D01*
X76059591Y-97212858D01*
G37*
G36*
X74484591Y-97212858D02*
G01*
X74518569Y-97223166D01*
X74549890Y-97239907D01*
X74577339Y-97262434D01*
X74599866Y-97289883D01*
X74616607Y-97321204D01*
X74626915Y-97355182D01*
X74631000Y-97396663D01*
X74631000Y-98072883D01*
X74626915Y-98114364D01*
X74616607Y-98148342D01*
X74599866Y-98179663D01*
X74577339Y-98207112D01*
X74549890Y-98229639D01*
X74518569Y-98246380D01*
X74484591Y-98256688D01*
X74443110Y-98260773D01*
X73841890Y-98260773D01*
X73800409Y-98256688D01*
X73766431Y-98246380D01*
X73735110Y-98229639D01*
X73707661Y-98207112D01*
X73685134Y-98179663D01*
X73668393Y-98148342D01*
X73658085Y-98114364D01*
X73654000Y-98072883D01*
X73654000Y-97396663D01*
X73658085Y-97355182D01*
X73668393Y-97321204D01*
X73685134Y-97289883D01*
X73707661Y-97262434D01*
X73735110Y-97239907D01*
X73766431Y-97223166D01*
X73800409Y-97212858D01*
X73841890Y-97208773D01*
X74443110Y-97208773D01*
X74484591Y-97212858D01*
X74484591Y-97212858D01*
G37*
G36*
X85751000Y-96886000D02*
G01*
X79349000Y-96886000D01*
X79349000Y-95334000D01*
X85751000Y-95334000D01*
X85751000Y-96886000D01*
X85751000Y-96886000D01*
G37*
G36*
X76059591Y-94451989D02*
G01*
X76093569Y-94462297D01*
X76124890Y-94479038D01*
X76152339Y-94501565D01*
X76174866Y-94529014D01*
X76191607Y-94560335D01*
X76201915Y-94594313D01*
X76206000Y-94635794D01*
X76206000Y-95312014D01*
X76201915Y-95353495D01*
X76191607Y-95387473D01*
X76174866Y-95418794D01*
X76152339Y-95446243D01*
X76124890Y-95468770D01*
X76093569Y-95485511D01*
X76059591Y-95495819D01*
X76018110Y-95499904D01*
X75416890Y-95499904D01*
X75375409Y-95495819D01*
X75341431Y-95485511D01*
X75310110Y-95468770D01*
X75282661Y-95446243D01*
X75260134Y-95418794D01*
X75243393Y-95387473D01*
X75233085Y-95353495D01*
X75229000Y-95312014D01*
X75229000Y-94635794D01*
X75233085Y-94594313D01*
X75243393Y-94560335D01*
X75260134Y-94529014D01*
X75282661Y-94501565D01*
X75310110Y-94479038D01*
X75341431Y-94462297D01*
X75375409Y-94451989D01*
X75416890Y-94447904D01*
X76018110Y-94447904D01*
X76059591Y-94451989D01*
X76059591Y-94451989D01*
G37*
G36*
X74484591Y-94451989D02*
G01*
X74518569Y-94462297D01*
X74549890Y-94479038D01*
X74577339Y-94501565D01*
X74599866Y-94529014D01*
X74616607Y-94560335D01*
X74626915Y-94594313D01*
X74631000Y-94635794D01*
X74631000Y-95312014D01*
X74626915Y-95353495D01*
X74616607Y-95387473D01*
X74599866Y-95418794D01*
X74577339Y-95446243D01*
X74549890Y-95468770D01*
X74518569Y-95485511D01*
X74484591Y-95495819D01*
X74443110Y-95499904D01*
X73841890Y-95499904D01*
X73800409Y-95495819D01*
X73766431Y-95485511D01*
X73735110Y-95468770D01*
X73707661Y-95446243D01*
X73685134Y-95418794D01*
X73668393Y-95387473D01*
X73658085Y-95353495D01*
X73654000Y-95312014D01*
X73654000Y-94635794D01*
X73658085Y-94594313D01*
X73668393Y-94560335D01*
X73685134Y-94529014D01*
X73707661Y-94501565D01*
X73735110Y-94479038D01*
X73766431Y-94462297D01*
X73800409Y-94451989D01*
X73841890Y-94447904D01*
X74443110Y-94447904D01*
X74484591Y-94451989D01*
X74484591Y-94451989D01*
G37*
G36*
X74484591Y-91691120D02*
G01*
X74518569Y-91701428D01*
X74549890Y-91718169D01*
X74577339Y-91740696D01*
X74599866Y-91768145D01*
X74616607Y-91799466D01*
X74626915Y-91833444D01*
X74631000Y-91874925D01*
X74631000Y-92551145D01*
X74626915Y-92592626D01*
X74616607Y-92626604D01*
X74599866Y-92657925D01*
X74577339Y-92685374D01*
X74549890Y-92707901D01*
X74518569Y-92724642D01*
X74484591Y-92734950D01*
X74443110Y-92739035D01*
X73841890Y-92739035D01*
X73800409Y-92734950D01*
X73766431Y-92724642D01*
X73735110Y-92707901D01*
X73707661Y-92685374D01*
X73685134Y-92657925D01*
X73668393Y-92626604D01*
X73658085Y-92592626D01*
X73654000Y-92551145D01*
X73654000Y-91874925D01*
X73658085Y-91833444D01*
X73668393Y-91799466D01*
X73685134Y-91768145D01*
X73707661Y-91740696D01*
X73735110Y-91718169D01*
X73766431Y-91701428D01*
X73800409Y-91691120D01*
X73841890Y-91687035D01*
X74443110Y-91687035D01*
X74484591Y-91691120D01*
X74484591Y-91691120D01*
G37*
G36*
X76059591Y-91691120D02*
G01*
X76093569Y-91701428D01*
X76124890Y-91718169D01*
X76152339Y-91740696D01*
X76174866Y-91768145D01*
X76191607Y-91799466D01*
X76201915Y-91833444D01*
X76206000Y-91874925D01*
X76206000Y-92551145D01*
X76201915Y-92592626D01*
X76191607Y-92626604D01*
X76174866Y-92657925D01*
X76152339Y-92685374D01*
X76124890Y-92707901D01*
X76093569Y-92724642D01*
X76059591Y-92734950D01*
X76018110Y-92739035D01*
X75416890Y-92739035D01*
X75375409Y-92734950D01*
X75341431Y-92724642D01*
X75310110Y-92707901D01*
X75282661Y-92685374D01*
X75260134Y-92657925D01*
X75243393Y-92626604D01*
X75233085Y-92592626D01*
X75229000Y-92551145D01*
X75229000Y-91874925D01*
X75233085Y-91833444D01*
X75243393Y-91799466D01*
X75260134Y-91768145D01*
X75282661Y-91740696D01*
X75310110Y-91718169D01*
X75341431Y-91701428D01*
X75375409Y-91691120D01*
X75416890Y-91687035D01*
X76018110Y-91687035D01*
X76059591Y-91691120D01*
X76059591Y-91691120D01*
G37*
G36*
X82798228Y-89351703D02*
G01*
X82953100Y-89415853D01*
X83092481Y-89508985D01*
X83211015Y-89627519D01*
X83304147Y-89766900D01*
X83368297Y-89921772D01*
X83401000Y-90086184D01*
X83401000Y-90253816D01*
X83368297Y-90418228D01*
X83304147Y-90573100D01*
X83211015Y-90712481D01*
X83092481Y-90831015D01*
X82953100Y-90924147D01*
X82798228Y-90988297D01*
X82633816Y-91021000D01*
X82466184Y-91021000D01*
X82301772Y-90988297D01*
X82146900Y-90924147D01*
X82007519Y-90831015D01*
X81888985Y-90712481D01*
X81795853Y-90573100D01*
X81731703Y-90418228D01*
X81699000Y-90253816D01*
X81699000Y-90086184D01*
X81731703Y-89921772D01*
X81795853Y-89766900D01*
X81888985Y-89627519D01*
X82007519Y-89508985D01*
X82146900Y-89415853D01*
X82301772Y-89351703D01*
X82466184Y-89319000D01*
X82633816Y-89319000D01*
X82798228Y-89351703D01*
X82798228Y-89351703D01*
G37*
G36*
X86608228Y-89351703D02*
G01*
X86763100Y-89415853D01*
X86902481Y-89508985D01*
X87021015Y-89627519D01*
X87114147Y-89766900D01*
X87178297Y-89921772D01*
X87211000Y-90086184D01*
X87211000Y-90253816D01*
X87178297Y-90418228D01*
X87114147Y-90573100D01*
X87021015Y-90712481D01*
X86902481Y-90831015D01*
X86763100Y-90924147D01*
X86608228Y-90988297D01*
X86443816Y-91021000D01*
X86276184Y-91021000D01*
X86111772Y-90988297D01*
X85956900Y-90924147D01*
X85817519Y-90831015D01*
X85698985Y-90712481D01*
X85605853Y-90573100D01*
X85541703Y-90418228D01*
X85509000Y-90253816D01*
X85509000Y-90086184D01*
X85541703Y-89921772D01*
X85605853Y-89766900D01*
X85698985Y-89627519D01*
X85817519Y-89508985D01*
X85956900Y-89415853D01*
X86111772Y-89351703D01*
X86276184Y-89319000D01*
X86443816Y-89319000D01*
X86608228Y-89351703D01*
X86608228Y-89351703D01*
G37*
G36*
X74484591Y-88930251D02*
G01*
X74518569Y-88940559D01*
X74549890Y-88957300D01*
X74577339Y-88979827D01*
X74599866Y-89007276D01*
X74616607Y-89038597D01*
X74626915Y-89072575D01*
X74631000Y-89114056D01*
X74631000Y-89790276D01*
X74626915Y-89831757D01*
X74616607Y-89865735D01*
X74599866Y-89897056D01*
X74577339Y-89924505D01*
X74549890Y-89947032D01*
X74518569Y-89963773D01*
X74484591Y-89974081D01*
X74443110Y-89978166D01*
X73841890Y-89978166D01*
X73800409Y-89974081D01*
X73766431Y-89963773D01*
X73735110Y-89947032D01*
X73707661Y-89924505D01*
X73685134Y-89897056D01*
X73668393Y-89865735D01*
X73658085Y-89831757D01*
X73654000Y-89790276D01*
X73654000Y-89114056D01*
X73658085Y-89072575D01*
X73668393Y-89038597D01*
X73685134Y-89007276D01*
X73707661Y-88979827D01*
X73735110Y-88957300D01*
X73766431Y-88940559D01*
X73800409Y-88930251D01*
X73841890Y-88926166D01*
X74443110Y-88926166D01*
X74484591Y-88930251D01*
X74484591Y-88930251D01*
G37*
G36*
X76059591Y-88930251D02*
G01*
X76093569Y-88940559D01*
X76124890Y-88957300D01*
X76152339Y-88979827D01*
X76174866Y-89007276D01*
X76191607Y-89038597D01*
X76201915Y-89072575D01*
X76206000Y-89114056D01*
X76206000Y-89790276D01*
X76201915Y-89831757D01*
X76191607Y-89865735D01*
X76174866Y-89897056D01*
X76152339Y-89924505D01*
X76124890Y-89947032D01*
X76093569Y-89963773D01*
X76059591Y-89974081D01*
X76018110Y-89978166D01*
X75416890Y-89978166D01*
X75375409Y-89974081D01*
X75341431Y-89963773D01*
X75310110Y-89947032D01*
X75282661Y-89924505D01*
X75260134Y-89897056D01*
X75243393Y-89865735D01*
X75233085Y-89831757D01*
X75229000Y-89790276D01*
X75229000Y-89114056D01*
X75233085Y-89072575D01*
X75243393Y-89038597D01*
X75260134Y-89007276D01*
X75282661Y-88979827D01*
X75310110Y-88957300D01*
X75341431Y-88940559D01*
X75375409Y-88930251D01*
X75416890Y-88926166D01*
X76018110Y-88926166D01*
X76059591Y-88930251D01*
X76059591Y-88930251D01*
G37*
G36*
X76059591Y-86169382D02*
G01*
X76093569Y-86179690D01*
X76124890Y-86196431D01*
X76152339Y-86218958D01*
X76174866Y-86246407D01*
X76191607Y-86277728D01*
X76201915Y-86311706D01*
X76206000Y-86353187D01*
X76206000Y-87029407D01*
X76201915Y-87070888D01*
X76191607Y-87104866D01*
X76174866Y-87136187D01*
X76152339Y-87163636D01*
X76124890Y-87186163D01*
X76093569Y-87202904D01*
X76059591Y-87213212D01*
X76018110Y-87217297D01*
X75416890Y-87217297D01*
X75375409Y-87213212D01*
X75341431Y-87202904D01*
X75310110Y-87186163D01*
X75282661Y-87163636D01*
X75260134Y-87136187D01*
X75243393Y-87104866D01*
X75233085Y-87070888D01*
X75229000Y-87029407D01*
X75229000Y-86353187D01*
X75233085Y-86311706D01*
X75243393Y-86277728D01*
X75260134Y-86246407D01*
X75282661Y-86218958D01*
X75310110Y-86196431D01*
X75341431Y-86179690D01*
X75375409Y-86169382D01*
X75416890Y-86165297D01*
X76018110Y-86165297D01*
X76059591Y-86169382D01*
X76059591Y-86169382D01*
G37*
G36*
X74484591Y-86169382D02*
G01*
X74518569Y-86179690D01*
X74549890Y-86196431D01*
X74577339Y-86218958D01*
X74599866Y-86246407D01*
X74616607Y-86277728D01*
X74626915Y-86311706D01*
X74631000Y-86353187D01*
X74631000Y-87029407D01*
X74626915Y-87070888D01*
X74616607Y-87104866D01*
X74599866Y-87136187D01*
X74577339Y-87163636D01*
X74549890Y-87186163D01*
X74518569Y-87202904D01*
X74484591Y-87213212D01*
X74443110Y-87217297D01*
X73841890Y-87217297D01*
X73800409Y-87213212D01*
X73766431Y-87202904D01*
X73735110Y-87186163D01*
X73707661Y-87163636D01*
X73685134Y-87136187D01*
X73668393Y-87104866D01*
X73658085Y-87070888D01*
X73654000Y-87029407D01*
X73654000Y-86353187D01*
X73658085Y-86311706D01*
X73668393Y-86277728D01*
X73685134Y-86246407D01*
X73707661Y-86218958D01*
X73735110Y-86196431D01*
X73766431Y-86179690D01*
X73800409Y-86169382D01*
X73841890Y-86165297D01*
X74443110Y-86165297D01*
X74484591Y-86169382D01*
X74484591Y-86169382D01*
G37*
G36*
X76059591Y-83408513D02*
G01*
X76093569Y-83418821D01*
X76124890Y-83435562D01*
X76152339Y-83458089D01*
X76174866Y-83485538D01*
X76191607Y-83516859D01*
X76201915Y-83550837D01*
X76206000Y-83592318D01*
X76206000Y-84268538D01*
X76201915Y-84310019D01*
X76191607Y-84343997D01*
X76174866Y-84375318D01*
X76152339Y-84402767D01*
X76124890Y-84425294D01*
X76093569Y-84442035D01*
X76059591Y-84452343D01*
X76018110Y-84456428D01*
X75416890Y-84456428D01*
X75375409Y-84452343D01*
X75341431Y-84442035D01*
X75310110Y-84425294D01*
X75282661Y-84402767D01*
X75260134Y-84375318D01*
X75243393Y-84343997D01*
X75233085Y-84310019D01*
X75229000Y-84268538D01*
X75229000Y-83592318D01*
X75233085Y-83550837D01*
X75243393Y-83516859D01*
X75260134Y-83485538D01*
X75282661Y-83458089D01*
X75310110Y-83435562D01*
X75341431Y-83418821D01*
X75375409Y-83408513D01*
X75416890Y-83404428D01*
X76018110Y-83404428D01*
X76059591Y-83408513D01*
X76059591Y-83408513D01*
G37*
G36*
X74484591Y-83408513D02*
G01*
X74518569Y-83418821D01*
X74549890Y-83435562D01*
X74577339Y-83458089D01*
X74599866Y-83485538D01*
X74616607Y-83516859D01*
X74626915Y-83550837D01*
X74631000Y-83592318D01*
X74631000Y-84268538D01*
X74626915Y-84310019D01*
X74616607Y-84343997D01*
X74599866Y-84375318D01*
X74577339Y-84402767D01*
X74549890Y-84425294D01*
X74518569Y-84442035D01*
X74484591Y-84452343D01*
X74443110Y-84456428D01*
X73841890Y-84456428D01*
X73800409Y-84452343D01*
X73766431Y-84442035D01*
X73735110Y-84425294D01*
X73707661Y-84402767D01*
X73685134Y-84375318D01*
X73668393Y-84343997D01*
X73658085Y-84310019D01*
X73654000Y-84268538D01*
X73654000Y-83592318D01*
X73658085Y-83550837D01*
X73668393Y-83516859D01*
X73685134Y-83485538D01*
X73707661Y-83458089D01*
X73735110Y-83435562D01*
X73766431Y-83418821D01*
X73800409Y-83408513D01*
X73841890Y-83404428D01*
X74443110Y-83404428D01*
X74484591Y-83408513D01*
X74484591Y-83408513D01*
G37*
G36*
X76059591Y-80647644D02*
G01*
X76093569Y-80657952D01*
X76124890Y-80674693D01*
X76152339Y-80697220D01*
X76174866Y-80724669D01*
X76191607Y-80755990D01*
X76201915Y-80789968D01*
X76206000Y-80831449D01*
X76206000Y-81507669D01*
X76201915Y-81549150D01*
X76191607Y-81583128D01*
X76174866Y-81614449D01*
X76152339Y-81641898D01*
X76124890Y-81664425D01*
X76093569Y-81681166D01*
X76059591Y-81691474D01*
X76018110Y-81695559D01*
X75416890Y-81695559D01*
X75375409Y-81691474D01*
X75341431Y-81681166D01*
X75310110Y-81664425D01*
X75282661Y-81641898D01*
X75260134Y-81614449D01*
X75243393Y-81583128D01*
X75233085Y-81549150D01*
X75229000Y-81507669D01*
X75229000Y-80831449D01*
X75233085Y-80789968D01*
X75243393Y-80755990D01*
X75260134Y-80724669D01*
X75282661Y-80697220D01*
X75310110Y-80674693D01*
X75341431Y-80657952D01*
X75375409Y-80647644D01*
X75416890Y-80643559D01*
X76018110Y-80643559D01*
X76059591Y-80647644D01*
X76059591Y-80647644D01*
G37*
G36*
X74484591Y-80647644D02*
G01*
X74518569Y-80657952D01*
X74549890Y-80674693D01*
X74577339Y-80697220D01*
X74599866Y-80724669D01*
X74616607Y-80755990D01*
X74626915Y-80789968D01*
X74631000Y-80831449D01*
X74631000Y-81507669D01*
X74626915Y-81549150D01*
X74616607Y-81583128D01*
X74599866Y-81614449D01*
X74577339Y-81641898D01*
X74549890Y-81664425D01*
X74518569Y-81681166D01*
X74484591Y-81691474D01*
X74443110Y-81695559D01*
X73841890Y-81695559D01*
X73800409Y-81691474D01*
X73766431Y-81681166D01*
X73735110Y-81664425D01*
X73707661Y-81641898D01*
X73685134Y-81614449D01*
X73668393Y-81583128D01*
X73658085Y-81549150D01*
X73654000Y-81507669D01*
X73654000Y-80831449D01*
X73658085Y-80789968D01*
X73668393Y-80755990D01*
X73685134Y-80724669D01*
X73707661Y-80697220D01*
X73735110Y-80674693D01*
X73766431Y-80657952D01*
X73800409Y-80647644D01*
X73841890Y-80643559D01*
X74443110Y-80643559D01*
X74484591Y-80647644D01*
X74484591Y-80647644D01*
G37*
G36*
X74484591Y-77886775D02*
G01*
X74518569Y-77897083D01*
X74549890Y-77913824D01*
X74577339Y-77936351D01*
X74599866Y-77963800D01*
X74616607Y-77995121D01*
X74626915Y-78029099D01*
X74631000Y-78070580D01*
X74631000Y-78746800D01*
X74626915Y-78788281D01*
X74616607Y-78822259D01*
X74599866Y-78853580D01*
X74577339Y-78881029D01*
X74549890Y-78903556D01*
X74518569Y-78920297D01*
X74484591Y-78930605D01*
X74443110Y-78934690D01*
X73841890Y-78934690D01*
X73800409Y-78930605D01*
X73766431Y-78920297D01*
X73735110Y-78903556D01*
X73707661Y-78881029D01*
X73685134Y-78853580D01*
X73668393Y-78822259D01*
X73658085Y-78788281D01*
X73654000Y-78746800D01*
X73654000Y-78070580D01*
X73658085Y-78029099D01*
X73668393Y-77995121D01*
X73685134Y-77963800D01*
X73707661Y-77936351D01*
X73735110Y-77913824D01*
X73766431Y-77897083D01*
X73800409Y-77886775D01*
X73841890Y-77882690D01*
X74443110Y-77882690D01*
X74484591Y-77886775D01*
X74484591Y-77886775D01*
G37*
G36*
X76059591Y-77886775D02*
G01*
X76093569Y-77897083D01*
X76124890Y-77913824D01*
X76152339Y-77936351D01*
X76174866Y-77963800D01*
X76191607Y-77995121D01*
X76201915Y-78029099D01*
X76206000Y-78070580D01*
X76206000Y-78746800D01*
X76201915Y-78788281D01*
X76191607Y-78822259D01*
X76174866Y-78853580D01*
X76152339Y-78881029D01*
X76124890Y-78903556D01*
X76093569Y-78920297D01*
X76059591Y-78930605D01*
X76018110Y-78934690D01*
X75416890Y-78934690D01*
X75375409Y-78930605D01*
X75341431Y-78920297D01*
X75310110Y-78903556D01*
X75282661Y-78881029D01*
X75260134Y-78853580D01*
X75243393Y-78822259D01*
X75233085Y-78788281D01*
X75229000Y-78746800D01*
X75229000Y-78070580D01*
X75233085Y-78029099D01*
X75243393Y-77995121D01*
X75260134Y-77963800D01*
X75282661Y-77936351D01*
X75310110Y-77913824D01*
X75341431Y-77897083D01*
X75375409Y-77886775D01*
X75416890Y-77882690D01*
X76018110Y-77882690D01*
X76059591Y-77886775D01*
X76059591Y-77886775D01*
G37*
G36*
X82716823Y-76631313D02*
G01*
X82877242Y-76679976D01*
X83009906Y-76750886D01*
X83025078Y-76758996D01*
X83154659Y-76865341D01*
X83261004Y-76994922D01*
X83261005Y-76994924D01*
X83340024Y-77142758D01*
X83388687Y-77303177D01*
X83405117Y-77470000D01*
X83388687Y-77636823D01*
X83340024Y-77797242D01*
X83272348Y-77923854D01*
X83261004Y-77945078D01*
X83154659Y-78074659D01*
X83025078Y-78181004D01*
X83025076Y-78181005D01*
X82877242Y-78260024D01*
X82716823Y-78308687D01*
X82591804Y-78321000D01*
X82508196Y-78321000D01*
X82383177Y-78308687D01*
X82222758Y-78260024D01*
X82074924Y-78181005D01*
X82074922Y-78181004D01*
X81945341Y-78074659D01*
X81838996Y-77945078D01*
X81827652Y-77923854D01*
X81759976Y-77797242D01*
X81711313Y-77636823D01*
X81694883Y-77470000D01*
X81711313Y-77303177D01*
X81759976Y-77142758D01*
X81838995Y-76994924D01*
X81838996Y-76994922D01*
X81945341Y-76865341D01*
X82074922Y-76758996D01*
X82090094Y-76750886D01*
X82222758Y-76679976D01*
X82383177Y-76631313D01*
X82508196Y-76619000D01*
X82591804Y-76619000D01*
X82716823Y-76631313D01*
X82716823Y-76631313D01*
G37*
G36*
X86526823Y-76631313D02*
G01*
X86687242Y-76679976D01*
X86819906Y-76750886D01*
X86835078Y-76758996D01*
X86964659Y-76865341D01*
X87071004Y-76994922D01*
X87071005Y-76994924D01*
X87150024Y-77142758D01*
X87198687Y-77303177D01*
X87215117Y-77470000D01*
X87198687Y-77636823D01*
X87150024Y-77797242D01*
X87082348Y-77923854D01*
X87071004Y-77945078D01*
X86964659Y-78074659D01*
X86835078Y-78181004D01*
X86835076Y-78181005D01*
X86687242Y-78260024D01*
X86526823Y-78308687D01*
X86401804Y-78321000D01*
X86318196Y-78321000D01*
X86193177Y-78308687D01*
X86032758Y-78260024D01*
X85884924Y-78181005D01*
X85884922Y-78181004D01*
X85755341Y-78074659D01*
X85648996Y-77945078D01*
X85637652Y-77923854D01*
X85569976Y-77797242D01*
X85521313Y-77636823D01*
X85504883Y-77470000D01*
X85521313Y-77303177D01*
X85569976Y-77142758D01*
X85648995Y-76994924D01*
X85648996Y-76994922D01*
X85755341Y-76865341D01*
X85884922Y-76758996D01*
X85900094Y-76750886D01*
X86032758Y-76679976D01*
X86193177Y-76631313D01*
X86318196Y-76619000D01*
X86401804Y-76619000D01*
X86526823Y-76631313D01*
X86526823Y-76631313D01*
G37*
G36*
X74484591Y-75125906D02*
G01*
X74518569Y-75136214D01*
X74549890Y-75152955D01*
X74577339Y-75175482D01*
X74599866Y-75202931D01*
X74616607Y-75234252D01*
X74626915Y-75268230D01*
X74631000Y-75309711D01*
X74631000Y-75985931D01*
X74626915Y-76027412D01*
X74616607Y-76061390D01*
X74599866Y-76092711D01*
X74577339Y-76120160D01*
X74549890Y-76142687D01*
X74518569Y-76159428D01*
X74484591Y-76169736D01*
X74443110Y-76173821D01*
X73841890Y-76173821D01*
X73800409Y-76169736D01*
X73766431Y-76159428D01*
X73735110Y-76142687D01*
X73707661Y-76120160D01*
X73685134Y-76092711D01*
X73668393Y-76061390D01*
X73658085Y-76027412D01*
X73654000Y-75985931D01*
X73654000Y-75309711D01*
X73658085Y-75268230D01*
X73668393Y-75234252D01*
X73685134Y-75202931D01*
X73707661Y-75175482D01*
X73735110Y-75152955D01*
X73766431Y-75136214D01*
X73800409Y-75125906D01*
X73841890Y-75121821D01*
X74443110Y-75121821D01*
X74484591Y-75125906D01*
X74484591Y-75125906D01*
G37*
G36*
X76059591Y-75125906D02*
G01*
X76093569Y-75136214D01*
X76124890Y-75152955D01*
X76152339Y-75175482D01*
X76174866Y-75202931D01*
X76191607Y-75234252D01*
X76201915Y-75268230D01*
X76206000Y-75309711D01*
X76206000Y-75985931D01*
X76201915Y-76027412D01*
X76191607Y-76061390D01*
X76174866Y-76092711D01*
X76152339Y-76120160D01*
X76124890Y-76142687D01*
X76093569Y-76159428D01*
X76059591Y-76169736D01*
X76018110Y-76173821D01*
X75416890Y-76173821D01*
X75375409Y-76169736D01*
X75341431Y-76159428D01*
X75310110Y-76142687D01*
X75282661Y-76120160D01*
X75260134Y-76092711D01*
X75243393Y-76061390D01*
X75233085Y-76027412D01*
X75229000Y-75985931D01*
X75229000Y-75309711D01*
X75233085Y-75268230D01*
X75243393Y-75234252D01*
X75260134Y-75202931D01*
X75282661Y-75175482D01*
X75310110Y-75152955D01*
X75341431Y-75136214D01*
X75375409Y-75125906D01*
X75416890Y-75121821D01*
X76018110Y-75121821D01*
X76059591Y-75125906D01*
X76059591Y-75125906D01*
G37*
G36*
X85751000Y-73576000D02*
G01*
X79349000Y-73576000D01*
X79349000Y-72024000D01*
X85751000Y-72024000D01*
X85751000Y-73576000D01*
X85751000Y-73576000D01*
G37*
G36*
X76059591Y-72365037D02*
G01*
X76093569Y-72375345D01*
X76124890Y-72392086D01*
X76152339Y-72414613D01*
X76174866Y-72442062D01*
X76191607Y-72473383D01*
X76201915Y-72507361D01*
X76206000Y-72548842D01*
X76206000Y-73225062D01*
X76201915Y-73266543D01*
X76191607Y-73300521D01*
X76174866Y-73331842D01*
X76152339Y-73359291D01*
X76124890Y-73381818D01*
X76093569Y-73398559D01*
X76059591Y-73408867D01*
X76018110Y-73412952D01*
X75416890Y-73412952D01*
X75375409Y-73408867D01*
X75341431Y-73398559D01*
X75310110Y-73381818D01*
X75282661Y-73359291D01*
X75260134Y-73331842D01*
X75243393Y-73300521D01*
X75233085Y-73266543D01*
X75229000Y-73225062D01*
X75229000Y-72548842D01*
X75233085Y-72507361D01*
X75243393Y-72473383D01*
X75260134Y-72442062D01*
X75282661Y-72414613D01*
X75310110Y-72392086D01*
X75341431Y-72375345D01*
X75375409Y-72365037D01*
X75416890Y-72360952D01*
X76018110Y-72360952D01*
X76059591Y-72365037D01*
X76059591Y-72365037D01*
G37*
G36*
X74484591Y-72365037D02*
G01*
X74518569Y-72375345D01*
X74549890Y-72392086D01*
X74577339Y-72414613D01*
X74599866Y-72442062D01*
X74616607Y-72473383D01*
X74626915Y-72507361D01*
X74631000Y-72548842D01*
X74631000Y-73225062D01*
X74626915Y-73266543D01*
X74616607Y-73300521D01*
X74599866Y-73331842D01*
X74577339Y-73359291D01*
X74549890Y-73381818D01*
X74518569Y-73398559D01*
X74484591Y-73408867D01*
X74443110Y-73412952D01*
X73841890Y-73412952D01*
X73800409Y-73408867D01*
X73766431Y-73398559D01*
X73735110Y-73381818D01*
X73707661Y-73359291D01*
X73685134Y-73331842D01*
X73668393Y-73300521D01*
X73658085Y-73266543D01*
X73654000Y-73225062D01*
X73654000Y-72548842D01*
X73658085Y-72507361D01*
X73668393Y-72473383D01*
X73685134Y-72442062D01*
X73707661Y-72414613D01*
X73735110Y-72392086D01*
X73766431Y-72375345D01*
X73800409Y-72365037D01*
X73841890Y-72360952D01*
X74443110Y-72360952D01*
X74484591Y-72365037D01*
X74484591Y-72365037D01*
G37*
G36*
X74484591Y-69604168D02*
G01*
X74518569Y-69614476D01*
X74549890Y-69631217D01*
X74577339Y-69653744D01*
X74599866Y-69681193D01*
X74616607Y-69712514D01*
X74626915Y-69746492D01*
X74631000Y-69787973D01*
X74631000Y-70464193D01*
X74626915Y-70505674D01*
X74616607Y-70539652D01*
X74599866Y-70570973D01*
X74577339Y-70598422D01*
X74549890Y-70620949D01*
X74518569Y-70637690D01*
X74484591Y-70647998D01*
X74443110Y-70652083D01*
X73841890Y-70652083D01*
X73800409Y-70647998D01*
X73766431Y-70637690D01*
X73735110Y-70620949D01*
X73707661Y-70598422D01*
X73685134Y-70570973D01*
X73668393Y-70539652D01*
X73658085Y-70505674D01*
X73654000Y-70464193D01*
X73654000Y-69787973D01*
X73658085Y-69746492D01*
X73668393Y-69712514D01*
X73685134Y-69681193D01*
X73707661Y-69653744D01*
X73735110Y-69631217D01*
X73766431Y-69614476D01*
X73800409Y-69604168D01*
X73841890Y-69600083D01*
X74443110Y-69600083D01*
X74484591Y-69604168D01*
X74484591Y-69604168D01*
G37*
G36*
X76059591Y-69604168D02*
G01*
X76093569Y-69614476D01*
X76124890Y-69631217D01*
X76152339Y-69653744D01*
X76174866Y-69681193D01*
X76191607Y-69712514D01*
X76201915Y-69746492D01*
X76206000Y-69787973D01*
X76206000Y-70464193D01*
X76201915Y-70505674D01*
X76191607Y-70539652D01*
X76174866Y-70570973D01*
X76152339Y-70598422D01*
X76124890Y-70620949D01*
X76093569Y-70637690D01*
X76059591Y-70647998D01*
X76018110Y-70652083D01*
X75416890Y-70652083D01*
X75375409Y-70647998D01*
X75341431Y-70637690D01*
X75310110Y-70620949D01*
X75282661Y-70598422D01*
X75260134Y-70570973D01*
X75243393Y-70539652D01*
X75233085Y-70505674D01*
X75229000Y-70464193D01*
X75229000Y-69787973D01*
X75233085Y-69746492D01*
X75243393Y-69712514D01*
X75260134Y-69681193D01*
X75282661Y-69653744D01*
X75310110Y-69631217D01*
X75341431Y-69614476D01*
X75375409Y-69604168D01*
X75416890Y-69600083D01*
X76018110Y-69600083D01*
X76059591Y-69604168D01*
X76059591Y-69604168D01*
G37*
G36*
X74484591Y-66843299D02*
G01*
X74518569Y-66853607D01*
X74549890Y-66870348D01*
X74577339Y-66892875D01*
X74599866Y-66920324D01*
X74616607Y-66951645D01*
X74626915Y-66985623D01*
X74631000Y-67027104D01*
X74631000Y-67703324D01*
X74626915Y-67744805D01*
X74616607Y-67778783D01*
X74599866Y-67810104D01*
X74577339Y-67837553D01*
X74549890Y-67860080D01*
X74518569Y-67876821D01*
X74484591Y-67887129D01*
X74443110Y-67891214D01*
X73841890Y-67891214D01*
X73800409Y-67887129D01*
X73766431Y-67876821D01*
X73735110Y-67860080D01*
X73707661Y-67837553D01*
X73685134Y-67810104D01*
X73668393Y-67778783D01*
X73658085Y-67744805D01*
X73654000Y-67703324D01*
X73654000Y-67027104D01*
X73658085Y-66985623D01*
X73668393Y-66951645D01*
X73685134Y-66920324D01*
X73707661Y-66892875D01*
X73735110Y-66870348D01*
X73766431Y-66853607D01*
X73800409Y-66843299D01*
X73841890Y-66839214D01*
X74443110Y-66839214D01*
X74484591Y-66843299D01*
X74484591Y-66843299D01*
G37*
G36*
X76059591Y-66843299D02*
G01*
X76093569Y-66853607D01*
X76124890Y-66870348D01*
X76152339Y-66892875D01*
X76174866Y-66920324D01*
X76191607Y-66951645D01*
X76201915Y-66985623D01*
X76206000Y-67027104D01*
X76206000Y-67703324D01*
X76201915Y-67744805D01*
X76191607Y-67778783D01*
X76174866Y-67810104D01*
X76152339Y-67837553D01*
X76124890Y-67860080D01*
X76093569Y-67876821D01*
X76059591Y-67887129D01*
X76018110Y-67891214D01*
X75416890Y-67891214D01*
X75375409Y-67887129D01*
X75341431Y-67876821D01*
X75310110Y-67860080D01*
X75282661Y-67837553D01*
X75260134Y-67810104D01*
X75243393Y-67778783D01*
X75233085Y-67744805D01*
X75229000Y-67703324D01*
X75229000Y-67027104D01*
X75233085Y-66985623D01*
X75243393Y-66951645D01*
X75260134Y-66920324D01*
X75282661Y-66892875D01*
X75310110Y-66870348D01*
X75341431Y-66853607D01*
X75375409Y-66843299D01*
X75416890Y-66839214D01*
X76018110Y-66839214D01*
X76059591Y-66843299D01*
X76059591Y-66843299D01*
G37*
G36*
X85751000Y-67676000D02*
G01*
X79349000Y-67676000D01*
X79349000Y-66124000D01*
X85751000Y-66124000D01*
X85751000Y-67676000D01*
X85751000Y-67676000D01*
G37*
G36*
X74484591Y-64082430D02*
G01*
X74518569Y-64092738D01*
X74549890Y-64109479D01*
X74577339Y-64132006D01*
X74599866Y-64159455D01*
X74616607Y-64190776D01*
X74626915Y-64224754D01*
X74631000Y-64266235D01*
X74631000Y-64942455D01*
X74626915Y-64983936D01*
X74616607Y-65017914D01*
X74599866Y-65049235D01*
X74577339Y-65076684D01*
X74549890Y-65099211D01*
X74518569Y-65115952D01*
X74484591Y-65126260D01*
X74443110Y-65130345D01*
X73841890Y-65130345D01*
X73800409Y-65126260D01*
X73766431Y-65115952D01*
X73735110Y-65099211D01*
X73707661Y-65076684D01*
X73685134Y-65049235D01*
X73668393Y-65017914D01*
X73658085Y-64983936D01*
X73654000Y-64942455D01*
X73654000Y-64266235D01*
X73658085Y-64224754D01*
X73668393Y-64190776D01*
X73685134Y-64159455D01*
X73707661Y-64132006D01*
X73735110Y-64109479D01*
X73766431Y-64092738D01*
X73800409Y-64082430D01*
X73841890Y-64078345D01*
X74443110Y-64078345D01*
X74484591Y-64082430D01*
X74484591Y-64082430D01*
G37*
G36*
X76059591Y-64082430D02*
G01*
X76093569Y-64092738D01*
X76124890Y-64109479D01*
X76152339Y-64132006D01*
X76174866Y-64159455D01*
X76191607Y-64190776D01*
X76201915Y-64224754D01*
X76206000Y-64266235D01*
X76206000Y-64942455D01*
X76201915Y-64983936D01*
X76191607Y-65017914D01*
X76174866Y-65049235D01*
X76152339Y-65076684D01*
X76124890Y-65099211D01*
X76093569Y-65115952D01*
X76059591Y-65126260D01*
X76018110Y-65130345D01*
X75416890Y-65130345D01*
X75375409Y-65126260D01*
X75341431Y-65115952D01*
X75310110Y-65099211D01*
X75282661Y-65076684D01*
X75260134Y-65049235D01*
X75243393Y-65017914D01*
X75233085Y-64983936D01*
X75229000Y-64942455D01*
X75229000Y-64266235D01*
X75233085Y-64224754D01*
X75243393Y-64190776D01*
X75260134Y-64159455D01*
X75282661Y-64132006D01*
X75310110Y-64109479D01*
X75341431Y-64092738D01*
X75375409Y-64082430D01*
X75416890Y-64078345D01*
X76018110Y-64078345D01*
X76059591Y-64082430D01*
X76059591Y-64082430D01*
G37*
G36*
X76059591Y-61321561D02*
G01*
X76093569Y-61331869D01*
X76124890Y-61348610D01*
X76152339Y-61371137D01*
X76174866Y-61398586D01*
X76191607Y-61429907D01*
X76201915Y-61463885D01*
X76206000Y-61505366D01*
X76206000Y-62181586D01*
X76201915Y-62223067D01*
X76191607Y-62257045D01*
X76174866Y-62288366D01*
X76152339Y-62315815D01*
X76124890Y-62338342D01*
X76093569Y-62355083D01*
X76059591Y-62365391D01*
X76018110Y-62369476D01*
X75416890Y-62369476D01*
X75375409Y-62365391D01*
X75341431Y-62355083D01*
X75310110Y-62338342D01*
X75282661Y-62315815D01*
X75260134Y-62288366D01*
X75243393Y-62257045D01*
X75233085Y-62223067D01*
X75229000Y-62181586D01*
X75229000Y-61505366D01*
X75233085Y-61463885D01*
X75243393Y-61429907D01*
X75260134Y-61398586D01*
X75282661Y-61371137D01*
X75310110Y-61348610D01*
X75341431Y-61331869D01*
X75375409Y-61321561D01*
X75416890Y-61317476D01*
X76018110Y-61317476D01*
X76059591Y-61321561D01*
X76059591Y-61321561D01*
G37*
G36*
X74484591Y-61321561D02*
G01*
X74518569Y-61331869D01*
X74549890Y-61348610D01*
X74577339Y-61371137D01*
X74599866Y-61398586D01*
X74616607Y-61429907D01*
X74626915Y-61463885D01*
X74631000Y-61505366D01*
X74631000Y-62181586D01*
X74626915Y-62223067D01*
X74616607Y-62257045D01*
X74599866Y-62288366D01*
X74577339Y-62315815D01*
X74549890Y-62338342D01*
X74518569Y-62355083D01*
X74484591Y-62365391D01*
X74443110Y-62369476D01*
X73841890Y-62369476D01*
X73800409Y-62365391D01*
X73766431Y-62355083D01*
X73735110Y-62338342D01*
X73707661Y-62315815D01*
X73685134Y-62288366D01*
X73668393Y-62257045D01*
X73658085Y-62223067D01*
X73654000Y-62181586D01*
X73654000Y-61505366D01*
X73658085Y-61463885D01*
X73668393Y-61429907D01*
X73685134Y-61398586D01*
X73707661Y-61371137D01*
X73735110Y-61348610D01*
X73766431Y-61331869D01*
X73800409Y-61321561D01*
X73841890Y-61317476D01*
X74443110Y-61317476D01*
X74484591Y-61321561D01*
X74484591Y-61321561D01*
G37*
G36*
X68637423Y-55601661D02*
G01*
X69028879Y-55763807D01*
X69028881Y-55763808D01*
X69381183Y-55999209D01*
X69680791Y-56298817D01*
X69884366Y-56603488D01*
X69916193Y-56651121D01*
X70078339Y-57042577D01*
X70161000Y-57458144D01*
X70161000Y-57881856D01*
X70078339Y-58297423D01*
X69941349Y-58628146D01*
X69916192Y-58688881D01*
X69680791Y-59041183D01*
X69381183Y-59340791D01*
X69028881Y-59576192D01*
X69028880Y-59576193D01*
X69028879Y-59576193D01*
X68637423Y-59738339D01*
X68221856Y-59821000D01*
X67798144Y-59821000D01*
X67382577Y-59738339D01*
X66991121Y-59576193D01*
X66991120Y-59576193D01*
X66991119Y-59576192D01*
X66638817Y-59340791D01*
X66339209Y-59041183D01*
X66103808Y-58688881D01*
X66078651Y-58628146D01*
X65941661Y-58297423D01*
X65859000Y-57881856D01*
X65859000Y-57458144D01*
X65941661Y-57042577D01*
X66103807Y-56651121D01*
X66135634Y-56603488D01*
X66339209Y-56298817D01*
X66638817Y-55999209D01*
X66991119Y-55763808D01*
X66991121Y-55763807D01*
X67382577Y-55601661D01*
X67798144Y-55519000D01*
X68221856Y-55519000D01*
X68637423Y-55601661D01*
X68637423Y-55601661D01*
G37*
G36*
X82467723Y-55601661D02*
G01*
X82859179Y-55763807D01*
X82859181Y-55763808D01*
X83211483Y-55999209D01*
X83511091Y-56298817D01*
X83714666Y-56603488D01*
X83746493Y-56651121D01*
X83908639Y-57042577D01*
X83991300Y-57458144D01*
X83991300Y-57881856D01*
X83908639Y-58297423D01*
X83771649Y-58628146D01*
X83746492Y-58688881D01*
X83511091Y-59041183D01*
X83211483Y-59340791D01*
X82859181Y-59576192D01*
X82859180Y-59576193D01*
X82859179Y-59576193D01*
X82467723Y-59738339D01*
X82052156Y-59821000D01*
X81628444Y-59821000D01*
X81212877Y-59738339D01*
X80821421Y-59576193D01*
X80821420Y-59576193D01*
X80821419Y-59576192D01*
X80469117Y-59340791D01*
X80169509Y-59041183D01*
X79934108Y-58688881D01*
X79908951Y-58628146D01*
X79771961Y-58297423D01*
X79689300Y-57881856D01*
X79689300Y-57458144D01*
X79771961Y-57042577D01*
X79934107Y-56651121D01*
X79965934Y-56603488D01*
X80169509Y-56298817D01*
X80469117Y-55999209D01*
X80821419Y-55763808D01*
X80821421Y-55763807D01*
X81212877Y-55601661D01*
X81628444Y-55519000D01*
X82052156Y-55519000D01*
X82467723Y-55601661D01*
X82467723Y-55601661D01*
G37*
G36*
X74484591Y-58560692D02*
G01*
X74518569Y-58571000D01*
X74549890Y-58587741D01*
X74577339Y-58610268D01*
X74599866Y-58637717D01*
X74616607Y-58669038D01*
X74626915Y-58703016D01*
X74631000Y-58744497D01*
X74631000Y-59420717D01*
X74626915Y-59462198D01*
X74616607Y-59496176D01*
X74599866Y-59527497D01*
X74577339Y-59554946D01*
X74549890Y-59577473D01*
X74518569Y-59594214D01*
X74484591Y-59604522D01*
X74443110Y-59608607D01*
X73841890Y-59608607D01*
X73800409Y-59604522D01*
X73766431Y-59594214D01*
X73735110Y-59577473D01*
X73707661Y-59554946D01*
X73685134Y-59527497D01*
X73668393Y-59496176D01*
X73658085Y-59462198D01*
X73654000Y-59420717D01*
X73654000Y-58744497D01*
X73658085Y-58703016D01*
X73668393Y-58669038D01*
X73685134Y-58637717D01*
X73707661Y-58610268D01*
X73735110Y-58587741D01*
X73766431Y-58571000D01*
X73800409Y-58560692D01*
X73841890Y-58556607D01*
X74443110Y-58556607D01*
X74484591Y-58560692D01*
X74484591Y-58560692D01*
G37*
G36*
X76059591Y-58560692D02*
G01*
X76093569Y-58571000D01*
X76124890Y-58587741D01*
X76152339Y-58610268D01*
X76174866Y-58637717D01*
X76191607Y-58669038D01*
X76201915Y-58703016D01*
X76206000Y-58744497D01*
X76206000Y-59420717D01*
X76201915Y-59462198D01*
X76191607Y-59496176D01*
X76174866Y-59527497D01*
X76152339Y-59554946D01*
X76124890Y-59577473D01*
X76093569Y-59594214D01*
X76059591Y-59604522D01*
X76018110Y-59608607D01*
X75416890Y-59608607D01*
X75375409Y-59604522D01*
X75341431Y-59594214D01*
X75310110Y-59577473D01*
X75282661Y-59554946D01*
X75260134Y-59527497D01*
X75243393Y-59496176D01*
X75233085Y-59462198D01*
X75229000Y-59420717D01*
X75229000Y-58744497D01*
X75233085Y-58703016D01*
X75243393Y-58669038D01*
X75260134Y-58637717D01*
X75282661Y-58610268D01*
X75310110Y-58587741D01*
X75341431Y-58571000D01*
X75375409Y-58560692D01*
X75416890Y-58556607D01*
X76018110Y-58556607D01*
X76059591Y-58560692D01*
X76059591Y-58560692D01*
G37*
G36*
X76059591Y-55799823D02*
G01*
X76093569Y-55810131D01*
X76124890Y-55826872D01*
X76152339Y-55849399D01*
X76174866Y-55876848D01*
X76191607Y-55908169D01*
X76201915Y-55942147D01*
X76206000Y-55983628D01*
X76206000Y-56659848D01*
X76201915Y-56701329D01*
X76191607Y-56735307D01*
X76174866Y-56766628D01*
X76152339Y-56794077D01*
X76124890Y-56816604D01*
X76093569Y-56833345D01*
X76059591Y-56843653D01*
X76018110Y-56847738D01*
X75416890Y-56847738D01*
X75375409Y-56843653D01*
X75341431Y-56833345D01*
X75310110Y-56816604D01*
X75282661Y-56794077D01*
X75260134Y-56766628D01*
X75243393Y-56735307D01*
X75233085Y-56701329D01*
X75229000Y-56659848D01*
X75229000Y-55983628D01*
X75233085Y-55942147D01*
X75243393Y-55908169D01*
X75260134Y-55876848D01*
X75282661Y-55849399D01*
X75310110Y-55826872D01*
X75341431Y-55810131D01*
X75375409Y-55799823D01*
X75416890Y-55795738D01*
X76018110Y-55795738D01*
X76059591Y-55799823D01*
X76059591Y-55799823D01*
G37*
G36*
X74484591Y-55799823D02*
G01*
X74518569Y-55810131D01*
X74549890Y-55826872D01*
X74577339Y-55849399D01*
X74599866Y-55876848D01*
X74616607Y-55908169D01*
X74626915Y-55942147D01*
X74631000Y-55983628D01*
X74631000Y-56659848D01*
X74626915Y-56701329D01*
X74616607Y-56735307D01*
X74599866Y-56766628D01*
X74577339Y-56794077D01*
X74549890Y-56816604D01*
X74518569Y-56833345D01*
X74484591Y-56843653D01*
X74443110Y-56847738D01*
X73841890Y-56847738D01*
X73800409Y-56843653D01*
X73766431Y-56833345D01*
X73735110Y-56816604D01*
X73707661Y-56794077D01*
X73685134Y-56766628D01*
X73668393Y-56735307D01*
X73658085Y-56701329D01*
X73654000Y-56659848D01*
X73654000Y-55983628D01*
X73658085Y-55942147D01*
X73668393Y-55908169D01*
X73685134Y-55876848D01*
X73707661Y-55849399D01*
X73735110Y-55826872D01*
X73766431Y-55810131D01*
X73800409Y-55799823D01*
X73841890Y-55795738D01*
X74443110Y-55795738D01*
X74484591Y-55799823D01*
X74484591Y-55799823D01*
G37*
G36*
X72754443Y-53969519D02*
G01*
X72820627Y-53976037D01*
X72990466Y-54027557D01*
X73146991Y-54111222D01*
X73182729Y-54140552D01*
X73284186Y-54223814D01*
X73367448Y-54325271D01*
X73396778Y-54361009D01*
X73480443Y-54517534D01*
X73531963Y-54687373D01*
X73549359Y-54864000D01*
X73531963Y-55040627D01*
X73480443Y-55210466D01*
X73396778Y-55366991D01*
X73367448Y-55402729D01*
X73284186Y-55504186D01*
X73182729Y-55587448D01*
X73146991Y-55616778D01*
X72990466Y-55700443D01*
X72820627Y-55751963D01*
X72754443Y-55758481D01*
X72688260Y-55765000D01*
X72599740Y-55765000D01*
X72533557Y-55758481D01*
X72467373Y-55751963D01*
X72297534Y-55700443D01*
X72141009Y-55616778D01*
X72105271Y-55587448D01*
X72003814Y-55504186D01*
X71920552Y-55402729D01*
X71891222Y-55366991D01*
X71807557Y-55210466D01*
X71756037Y-55040627D01*
X71738641Y-54864000D01*
X71756037Y-54687373D01*
X71807557Y-54517534D01*
X71891222Y-54361009D01*
X71920552Y-54325271D01*
X72003814Y-54223814D01*
X72105271Y-54140552D01*
X72141009Y-54111222D01*
X72297534Y-54027557D01*
X72467373Y-53976037D01*
X72533557Y-53969519D01*
X72599740Y-53963000D01*
X72688260Y-53963000D01*
X72754443Y-53969519D01*
X72754443Y-53969519D01*
G37*
G36*
X76059591Y-53038954D02*
G01*
X76093569Y-53049262D01*
X76124890Y-53066003D01*
X76152339Y-53088530D01*
X76174866Y-53115979D01*
X76191607Y-53147300D01*
X76201915Y-53181278D01*
X76206000Y-53222759D01*
X76206000Y-53898979D01*
X76201915Y-53940460D01*
X76191607Y-53974438D01*
X76174866Y-54005759D01*
X76152339Y-54033208D01*
X76124890Y-54055735D01*
X76093569Y-54072476D01*
X76059591Y-54082784D01*
X76018110Y-54086869D01*
X75416890Y-54086869D01*
X75375409Y-54082784D01*
X75341431Y-54072476D01*
X75310110Y-54055735D01*
X75282661Y-54033208D01*
X75260134Y-54005759D01*
X75243393Y-53974438D01*
X75233085Y-53940460D01*
X75229000Y-53898979D01*
X75229000Y-53222759D01*
X75233085Y-53181278D01*
X75243393Y-53147300D01*
X75260134Y-53115979D01*
X75282661Y-53088530D01*
X75310110Y-53066003D01*
X75341431Y-53049262D01*
X75375409Y-53038954D01*
X75416890Y-53034869D01*
X76018110Y-53034869D01*
X76059591Y-53038954D01*
X76059591Y-53038954D01*
G37*
G36*
X74484591Y-53038954D02*
G01*
X74518569Y-53049262D01*
X74549890Y-53066003D01*
X74577339Y-53088530D01*
X74599866Y-53115979D01*
X74616607Y-53147300D01*
X74626915Y-53181278D01*
X74631000Y-53222759D01*
X74631000Y-53898979D01*
X74626915Y-53940460D01*
X74616607Y-53974438D01*
X74599866Y-54005759D01*
X74577339Y-54033208D01*
X74549890Y-54055735D01*
X74518569Y-54072476D01*
X74484591Y-54082784D01*
X74443110Y-54086869D01*
X73841890Y-54086869D01*
X73800409Y-54082784D01*
X73766431Y-54072476D01*
X73735110Y-54055735D01*
X73707661Y-54033208D01*
X73685134Y-54005759D01*
X73668393Y-53974438D01*
X73658085Y-53940460D01*
X73654000Y-53898979D01*
X73654000Y-53222759D01*
X73658085Y-53181278D01*
X73668393Y-53147300D01*
X73685134Y-53115979D01*
X73707661Y-53088530D01*
X73735110Y-53066003D01*
X73766431Y-53049262D01*
X73800409Y-53038954D01*
X73841890Y-53034869D01*
X74443110Y-53034869D01*
X74484591Y-53038954D01*
X74484591Y-53038954D01*
G37*
G36*
X72754443Y-51429519D02*
G01*
X72820627Y-51436037D01*
X72990466Y-51487557D01*
X73146991Y-51571222D01*
X73182729Y-51600552D01*
X73284186Y-51683814D01*
X73367448Y-51785271D01*
X73396778Y-51821009D01*
X73480443Y-51977534D01*
X73531963Y-52147373D01*
X73549359Y-52324000D01*
X73531963Y-52500627D01*
X73480443Y-52670466D01*
X73396778Y-52826991D01*
X73367448Y-52862729D01*
X73284186Y-52964186D01*
X73192339Y-53039562D01*
X73146991Y-53076778D01*
X72990466Y-53160443D01*
X72820627Y-53211963D01*
X72754442Y-53218482D01*
X72688260Y-53225000D01*
X72599740Y-53225000D01*
X72533558Y-53218482D01*
X72467373Y-53211963D01*
X72297534Y-53160443D01*
X72141009Y-53076778D01*
X72095661Y-53039562D01*
X72003814Y-52964186D01*
X71920552Y-52862729D01*
X71891222Y-52826991D01*
X71807557Y-52670466D01*
X71756037Y-52500627D01*
X71738641Y-52324000D01*
X71756037Y-52147373D01*
X71807557Y-51977534D01*
X71891222Y-51821009D01*
X71920552Y-51785271D01*
X72003814Y-51683814D01*
X72105271Y-51600552D01*
X72141009Y-51571222D01*
X72297534Y-51487557D01*
X72467373Y-51436037D01*
X72533557Y-51429519D01*
X72599740Y-51423000D01*
X72688260Y-51423000D01*
X72754443Y-51429519D01*
X72754443Y-51429519D01*
G37*
G36*
X74484591Y-50278085D02*
G01*
X74518569Y-50288393D01*
X74549890Y-50305134D01*
X74577339Y-50327661D01*
X74599866Y-50355110D01*
X74616607Y-50386431D01*
X74626915Y-50420409D01*
X74631000Y-50461890D01*
X74631000Y-51138110D01*
X74626915Y-51179591D01*
X74616607Y-51213569D01*
X74599866Y-51244890D01*
X74577339Y-51272339D01*
X74549890Y-51294866D01*
X74518569Y-51311607D01*
X74484591Y-51321915D01*
X74443110Y-51326000D01*
X73841890Y-51326000D01*
X73800409Y-51321915D01*
X73766431Y-51311607D01*
X73735110Y-51294866D01*
X73707661Y-51272339D01*
X73685134Y-51244890D01*
X73668393Y-51213569D01*
X73658085Y-51179591D01*
X73654000Y-51138110D01*
X73654000Y-50461890D01*
X73658085Y-50420409D01*
X73668393Y-50386431D01*
X73685134Y-50355110D01*
X73707661Y-50327661D01*
X73735110Y-50305134D01*
X73766431Y-50288393D01*
X73800409Y-50278085D01*
X73841890Y-50274000D01*
X74443110Y-50274000D01*
X74484591Y-50278085D01*
X74484591Y-50278085D01*
G37*
G36*
X76059591Y-50278085D02*
G01*
X76093569Y-50288393D01*
X76124890Y-50305134D01*
X76152339Y-50327661D01*
X76174866Y-50355110D01*
X76191607Y-50386431D01*
X76201915Y-50420409D01*
X76206000Y-50461890D01*
X76206000Y-51138110D01*
X76201915Y-51179591D01*
X76191607Y-51213569D01*
X76174866Y-51244890D01*
X76152339Y-51272339D01*
X76124890Y-51294866D01*
X76093569Y-51311607D01*
X76059591Y-51321915D01*
X76018110Y-51326000D01*
X75416890Y-51326000D01*
X75375409Y-51321915D01*
X75341431Y-51311607D01*
X75310110Y-51294866D01*
X75282661Y-51272339D01*
X75260134Y-51244890D01*
X75243393Y-51213569D01*
X75233085Y-51179591D01*
X75229000Y-51138110D01*
X75229000Y-50461890D01*
X75233085Y-50420409D01*
X75243393Y-50386431D01*
X75260134Y-50355110D01*
X75282661Y-50327661D01*
X75310110Y-50305134D01*
X75341431Y-50288393D01*
X75375409Y-50278085D01*
X75416890Y-50274000D01*
X76018110Y-50274000D01*
X76059591Y-50278085D01*
X76059591Y-50278085D01*
G37*
G36*
X72754443Y-48889519D02*
G01*
X72820627Y-48896037D01*
X72990466Y-48947557D01*
X73146991Y-49031222D01*
X73182729Y-49060552D01*
X73284186Y-49143814D01*
X73367448Y-49245271D01*
X73396778Y-49281009D01*
X73480443Y-49437534D01*
X73531963Y-49607373D01*
X73549359Y-49784000D01*
X73531963Y-49960627D01*
X73480443Y-50130466D01*
X73396778Y-50286991D01*
X73395627Y-50288393D01*
X73284186Y-50424186D01*
X73182729Y-50507448D01*
X73146991Y-50536778D01*
X72990466Y-50620443D01*
X72820627Y-50671963D01*
X72754443Y-50678481D01*
X72688260Y-50685000D01*
X72599740Y-50685000D01*
X72533557Y-50678481D01*
X72467373Y-50671963D01*
X72297534Y-50620443D01*
X72141009Y-50536778D01*
X72105271Y-50507448D01*
X72003814Y-50424186D01*
X71892373Y-50288393D01*
X71891222Y-50286991D01*
X71807557Y-50130466D01*
X71756037Y-49960627D01*
X71738641Y-49784000D01*
X71756037Y-49607373D01*
X71807557Y-49437534D01*
X71891222Y-49281009D01*
X71920552Y-49245271D01*
X72003814Y-49143814D01*
X72105271Y-49060552D01*
X72141009Y-49031222D01*
X72297534Y-48947557D01*
X72467373Y-48896037D01*
X72533557Y-48889519D01*
X72599740Y-48883000D01*
X72688260Y-48883000D01*
X72754443Y-48889519D01*
X72754443Y-48889519D01*
G37*
G36*
X73545000Y-48145000D02*
G01*
X71743000Y-48145000D01*
X71743000Y-46343000D01*
X73545000Y-46343000D01*
X73545000Y-48145000D01*
X73545000Y-48145000D01*
G37*
G36*
X68637423Y-41771361D02*
G01*
X69028879Y-41933507D01*
X69028881Y-41933508D01*
X69381183Y-42168909D01*
X69680791Y-42468517D01*
X69916192Y-42820819D01*
X69916193Y-42820821D01*
X70078339Y-43212277D01*
X70161000Y-43627844D01*
X70161000Y-44051556D01*
X70078339Y-44467123D01*
X69916193Y-44858579D01*
X69916192Y-44858581D01*
X69680791Y-45210883D01*
X69381183Y-45510491D01*
X69028881Y-45745892D01*
X69028880Y-45745893D01*
X69028879Y-45745893D01*
X68637423Y-45908039D01*
X68221856Y-45990700D01*
X67798144Y-45990700D01*
X67382577Y-45908039D01*
X66991121Y-45745893D01*
X66991120Y-45745893D01*
X66991119Y-45745892D01*
X66638817Y-45510491D01*
X66339209Y-45210883D01*
X66103808Y-44858581D01*
X66103807Y-44858579D01*
X65941661Y-44467123D01*
X65859000Y-44051556D01*
X65859000Y-43627844D01*
X65941661Y-43212277D01*
X66103807Y-42820821D01*
X66103808Y-42820819D01*
X66339209Y-42468517D01*
X66638817Y-42168909D01*
X66991119Y-41933508D01*
X66991121Y-41933507D01*
X67382577Y-41771361D01*
X67798144Y-41688700D01*
X68221856Y-41688700D01*
X68637423Y-41771361D01*
X68637423Y-41771361D01*
G37*
G36*
X82467723Y-41771361D02*
G01*
X82859179Y-41933507D01*
X82859181Y-41933508D01*
X83211483Y-42168909D01*
X83511091Y-42468517D01*
X83746492Y-42820819D01*
X83746493Y-42820821D01*
X83908639Y-43212277D01*
X83991300Y-43627844D01*
X83991300Y-44051556D01*
X83908639Y-44467123D01*
X83746493Y-44858579D01*
X83746492Y-44858581D01*
X83511091Y-45210883D01*
X83211483Y-45510491D01*
X82859181Y-45745892D01*
X82859180Y-45745893D01*
X82859179Y-45745893D01*
X82467723Y-45908039D01*
X82052156Y-45990700D01*
X81628444Y-45990700D01*
X81212877Y-45908039D01*
X80821421Y-45745893D01*
X80821420Y-45745893D01*
X80821419Y-45745892D01*
X80469117Y-45510491D01*
X80169509Y-45210883D01*
X79934108Y-44858581D01*
X79934107Y-44858579D01*
X79771961Y-44467123D01*
X79689300Y-44051556D01*
X79689300Y-43627844D01*
X79771961Y-43212277D01*
X79934107Y-42820821D01*
X79934108Y-42820819D01*
X80169509Y-42468517D01*
X80469117Y-42168909D01*
X80821419Y-41933508D01*
X80821421Y-41933507D01*
X81212877Y-41771361D01*
X81628444Y-41688700D01*
X82052156Y-41688700D01*
X82467723Y-41771361D01*
X82467723Y-41771361D01*
G37*
M02*
