G04 #@! TF.GenerationSoftware,KiCad,Pcbnew,(5.1.4)-1*
G04 #@! TF.CreationDate,2019-08-22T22:39:33-07:00*
G04 #@! TF.ProjectId,the,7468652e-6b69-4636-9164-5f7063625858,rev?*
G04 #@! TF.SameCoordinates,Original*
G04 #@! TF.FileFunction,Copper,L2,Bot*
G04 #@! TF.FilePolarity,Positive*
%FSLAX46Y46*%
G04 Gerber Fmt 4.6, Leading zero omitted, Abs format (unit mm)*
G04 Created by KiCad (PCBNEW (5.1.4)-1) date 2019-08-22 22:39:33*
%MOMM*%
%LPD*%
G04 APERTURE LIST*
%ADD10C,0.120000*%
%ADD11C,4.200000*%
%ADD12O,1.700000X1.700000*%
%ADD13R,1.700000X1.700000*%
%ADD14O,1.600000X1.600000*%
%ADD15C,1.600000*%
%ADD16C,0.800000*%
%ADD17C,0.250000*%
G04 APERTURE END LIST*
D10*
X63500000Y-119380000D02*
X63500000Y-38100000D01*
X88900000Y-119380000D02*
X63500000Y-119380000D01*
X88900000Y-38100000D02*
X88900000Y-119380000D01*
X63500000Y-38100000D02*
X88900000Y-38100000D01*
D11*
X81840300Y-57670000D03*
X68010000Y-57670000D03*
X68010000Y-43839700D03*
X81840300Y-43839700D03*
D12*
X72644000Y-54864000D03*
X72644000Y-52324000D03*
X72644000Y-49784000D03*
D13*
X72644000Y-47244000D03*
D14*
X82550000Y-77470000D03*
D15*
X82550000Y-90170000D03*
X86360000Y-90170000D03*
D14*
X86360000Y-77470000D03*
D16*
X79248000Y-65532000D03*
X78290000Y-66040000D03*
X86868000Y-67564000D03*
X78232000Y-96012000D03*
X78232000Y-72644000D03*
X79206835Y-71506942D03*
X79400000Y-94705000D03*
D17*
X73744000Y-47244000D02*
X72644000Y-47244000D01*
X79248000Y-52748000D02*
X73744000Y-47244000D01*
X79248000Y-65532000D02*
X79248000Y-52748000D01*
X78290000Y-55430000D02*
X72644000Y-49784000D01*
X78290000Y-66040000D02*
X78290000Y-55430000D01*
X72644000Y-61467002D02*
X80772000Y-69595002D01*
X72644000Y-54864000D02*
X72644000Y-61467002D01*
X80772000Y-69595002D02*
X80772000Y-78740000D01*
X80772000Y-78740000D02*
X82296000Y-80264000D01*
X83566000Y-80264000D02*
X86360000Y-77470000D01*
X82296000Y-80264000D02*
X83566000Y-80264000D01*
X83681370Y-77470000D02*
X87376000Y-73775370D01*
X82550000Y-77470000D02*
X83681370Y-77470000D01*
X87376000Y-73775370D02*
X87376000Y-68072000D01*
X87376000Y-68072000D02*
X86868000Y-67564000D01*
X77832001Y-95612001D02*
X78232000Y-96012000D01*
X77832001Y-73043999D02*
X77832001Y-95612001D01*
X78232000Y-72644000D02*
X77832001Y-73043999D01*
X79206835Y-71506942D02*
X79093058Y-71506942D01*
X78957001Y-94262001D02*
X79400000Y-94705000D01*
X79206835Y-71506942D02*
X78957001Y-71756776D01*
X78957001Y-71756776D02*
X78957001Y-94262001D01*
M02*
